<svg xmlns="http://www.w3.org/2000/svg" xmlns:xlink="http://www.w3.org/1999/xlink" width="455" zoomAndPan="magnify" viewBox="0 0 341.25 1535.999937" height="2048" preserveAspectRatio="xMidYMid meet" version="1.0"><defs><g/><clipPath id="68e70b1ddb"><path d="M 316.84375 1294.335938 L 325.824219 1294.335938 L 325.824219 1303.316406 L 316.84375 1303.316406 Z M 316.84375 1294.335938 " clip-rule="nonzero"/></clipPath><clipPath id="ee2d49dd12"><path d="M 128.558594 99.867188 L 211.34375 99.867188 L 211.34375 209.152344 L 128.558594 209.152344 Z M 128.558594 99.867188 " clip-rule="nonzero"/></clipPath><clipPath id="05ffbf8098"><path d="M 139.035156 99.867188 L 200.867188 99.867188 C 206.652344 99.867188 211.34375 104.558594 211.34375 110.34375 L 211.34375 198.675781 C 211.34375 204.460938 206.652344 209.152344 200.867188 209.152344 L 139.035156 209.152344 C 133.246094 209.152344 128.558594 204.460938 128.558594 198.675781 L 128.558594 110.34375 C 128.558594 104.558594 133.246094 99.867188 139.035156 99.867188 Z M 139.035156 99.867188 " clip-rule="nonzero"/></clipPath><linearGradient x1="-20.484508" gradientTransform="matrix(0.323385, 0, 0, 0.323385, 128.557315, 99.865476)" y1="20.487492" x2="276.486026" gradientUnits="userSpaceOnUse" y2="317.457036" id="f94231ef5b"><stop stop-opacity="1" stop-color="rgb(0%, 12.89978%, 34.898376%)" offset="0"/><stop stop-opacity="1" stop-color="rgb(0.0198364%, 12.797546%, 34.751892%)" offset="0.0078125"/><stop stop-opacity="1" stop-color="rgb(0.062561%, 12.59613%, 34.457397%)" offset="0.015625"/><stop stop-opacity="1" stop-color="rgb(0.10376%, 12.394714%, 34.164429%)" offset="0.0234375"/><stop stop-opacity="1" stop-color="rgb(0.146484%, 12.193298%, 33.869934%)" offset="0.03125"/><stop stop-opacity="1" stop-color="rgb(0.189209%, 11.991882%, 33.576965%)" offset="0.0390625"/><stop stop-opacity="1" stop-color="rgb(0.230408%, 11.790466%, 33.282471%)" offset="0.046875"/><stop stop-opacity="1" stop-color="rgb(0.273132%, 11.58905%, 32.989502%)" offset="0.0546875"/><stop stop-opacity="1" stop-color="rgb(0.315857%, 11.387634%, 32.695007%)" offset="0.0625"/><stop stop-opacity="1" stop-color="rgb(0.357056%, 11.186218%, 32.402039%)" offset="0.0703125"/><stop stop-opacity="1" stop-color="rgb(0.39978%, 10.984802%, 32.107544%)" offset="0.078125"/><stop stop-opacity="1" stop-color="rgb(0.442505%, 10.783386%, 31.814575%)" offset="0.0859375"/><stop stop-opacity="1" stop-color="rgb(0.483704%, 10.580444%, 31.520081%)" offset="0.09375"/><stop stop-opacity="1" stop-color="rgb(0.526428%, 10.379028%, 31.227112%)" offset="0.101563"/><stop stop-opacity="1" stop-color="rgb(0.569153%, 10.177612%, 30.932617%)" offset="0.109375"/><stop stop-opacity="1" stop-color="rgb(0.610352%, 9.976196%, 30.639648%)" offset="0.117188"/><stop stop-opacity="1" stop-color="rgb(0.653076%, 9.77478%, 30.345154%)" offset="0.125"/><stop stop-opacity="1" stop-color="rgb(0.695801%, 9.573364%, 30.052185%)" offset="0.132812"/><stop stop-opacity="1" stop-color="rgb(0.737%, 9.371948%, 29.75769%)" offset="0.140625"/><stop stop-opacity="1" stop-color="rgb(0.779724%, 9.170532%, 29.464722%)" offset="0.148438"/><stop stop-opacity="1" stop-color="rgb(0.820923%, 8.969116%, 29.170227%)" offset="0.15625"/><stop stop-opacity="1" stop-color="rgb(0.863647%, 8.7677%, 28.877258%)" offset="0.164062"/><stop stop-opacity="1" stop-color="rgb(0.906372%, 8.564758%, 28.582764%)" offset="0.171875"/><stop stop-opacity="1" stop-color="rgb(0.947571%, 8.363342%, 28.289795%)" offset="0.179687"/><stop stop-opacity="1" stop-color="rgb(0.990295%, 8.161926%, 27.9953%)" offset="0.1875"/><stop stop-opacity="1" stop-color="rgb(1.03302%, 7.96051%, 27.702332%)" offset="0.195312"/><stop stop-opacity="1" stop-color="rgb(1.074219%, 7.759094%, 27.407837%)" offset="0.203125"/><stop stop-opacity="1" stop-color="rgb(1.116943%, 7.557678%, 27.114868%)" offset="0.210937"/><stop stop-opacity="1" stop-color="rgb(1.159668%, 7.356262%, 26.820374%)" offset="0.21875"/><stop stop-opacity="1" stop-color="rgb(1.200867%, 7.154846%, 26.527405%)" offset="0.226562"/><stop stop-opacity="1" stop-color="rgb(1.243591%, 6.95343%, 26.23291%)" offset="0.234375"/><stop stop-opacity="1" stop-color="rgb(1.286316%, 6.752014%, 25.939941%)" offset="0.242188"/><stop stop-opacity="1" stop-color="rgb(1.327515%, 6.550598%, 25.645447%)" offset="0.25"/><stop stop-opacity="1" stop-color="rgb(1.370239%, 6.347656%, 25.352478%)" offset="0.257812"/><stop stop-opacity="1" stop-color="rgb(1.412964%, 6.14624%, 25.057983%)" offset="0.265625"/><stop stop-opacity="1" stop-color="rgb(1.454163%, 5.944824%, 24.765015%)" offset="0.273438"/><stop stop-opacity="1" stop-color="rgb(1.496887%, 5.743408%, 24.47052%)" offset="0.28125"/><stop stop-opacity="1" stop-color="rgb(1.538086%, 5.541992%, 24.177551%)" offset="0.289062"/><stop stop-opacity="1" stop-color="rgb(1.580811%, 5.340576%, 23.883057%)" offset="0.296875"/><stop stop-opacity="1" stop-color="rgb(1.623535%, 5.13916%, 23.590088%)" offset="0.304688"/><stop stop-opacity="1" stop-color="rgb(1.664734%, 4.937744%, 23.295593%)" offset="0.3125"/><stop stop-opacity="1" stop-color="rgb(1.707458%, 4.736328%, 23.001099%)" offset="0.320312"/><stop stop-opacity="1" stop-color="rgb(1.750183%, 4.534912%, 22.70813%)" offset="0.328125"/><stop stop-opacity="1" stop-color="rgb(1.791382%, 4.33197%, 22.413635%)" offset="0.335938"/><stop stop-opacity="1" stop-color="rgb(1.834106%, 4.130554%, 22.120667%)" offset="0.34375"/><stop stop-opacity="1" stop-color="rgb(1.876831%, 3.929138%, 21.826172%)" offset="0.351562"/><stop stop-opacity="1" stop-color="rgb(1.91803%, 3.727722%, 21.533203%)" offset="0.359375"/><stop stop-opacity="1" stop-color="rgb(1.960754%, 3.526306%, 21.238708%)" offset="0.367188"/><stop stop-opacity="1" stop-color="rgb(2.003479%, 3.32489%, 20.94574%)" offset="0.375"/><stop stop-opacity="1" stop-color="rgb(2.044678%, 3.123474%, 20.651245%)" offset="0.382812"/><stop stop-opacity="1" stop-color="rgb(2.087402%, 2.922058%, 20.358276%)" offset="0.390625"/><stop stop-opacity="1" stop-color="rgb(2.130127%, 2.720642%, 20.063782%)" offset="0.398438"/><stop stop-opacity="1" stop-color="rgb(2.171326%, 2.519226%, 19.770813%)" offset="0.40625"/><stop stop-opacity="1" stop-color="rgb(2.21405%, 2.31781%, 19.476318%)" offset="0.414063"/><stop stop-opacity="1" stop-color="rgb(2.256775%, 2.114868%, 19.18335%)" offset="0.421875"/><stop stop-opacity="1" stop-color="rgb(2.297974%, 1.913452%, 18.888855%)" offset="0.429688"/><stop stop-opacity="1" stop-color="rgb(2.340698%, 1.712036%, 18.595886%)" offset="0.431021"/><stop stop-opacity="1" stop-color="rgb(2.362061%, 1.611328%, 18.449402%)" offset="0.4375"/><stop stop-opacity="1" stop-color="rgb(2.381897%, 1.51062%, 18.301392%)" offset="0.445313"/><stop stop-opacity="1" stop-color="rgb(2.424622%, 1.309204%, 18.008423%)" offset="0.453125"/><stop stop-opacity="1" stop-color="rgb(2.467346%, 1.107788%, 17.713928%)" offset="0.460938"/><stop stop-opacity="1" stop-color="rgb(2.508545%, 0.906372%, 17.420959%)" offset="0.46875"/><stop stop-opacity="1" stop-color="rgb(2.55127%, 0.704956%, 17.126465%)" offset="0.476562"/><stop stop-opacity="1" stop-color="rgb(2.593994%, 0.50354%, 16.833496%)" offset="0.484375"/><stop stop-opacity="1" stop-color="rgb(2.635193%, 0.302124%, 16.539001%)" offset="0.492188"/><stop stop-opacity="1" stop-color="rgb(2.677917%, 0.100708%, 16.246033%)" offset="0.5"/><stop stop-opacity="1" stop-color="rgb(2.677917%, 0.265503%, 16.75415%)" offset="0.503906"/><stop stop-opacity="1" stop-color="rgb(2.656555%, 0.532532%, 17.410278%)" offset="0.507812"/><stop stop-opacity="1" stop-color="rgb(2.635193%, 0.798035%, 18.06488%)" offset="0.511719"/><stop stop-opacity="1" stop-color="rgb(2.615356%, 1.065063%, 18.721008%)" offset="0.515625"/><stop stop-opacity="1" stop-color="rgb(2.593994%, 1.330566%, 19.37561%)" offset="0.519531"/><stop stop-opacity="1" stop-color="rgb(2.572632%, 1.597595%, 20.031738%)" offset="0.523438"/><stop stop-opacity="1" stop-color="rgb(2.55127%, 1.863098%, 20.687866%)" offset="0.527344"/><stop stop-opacity="1" stop-color="rgb(2.529907%, 2.130127%, 21.343994%)" offset="0.53125"/><stop stop-opacity="1" stop-color="rgb(2.508545%, 2.397156%, 21.998596%)" offset="0.535156"/><stop stop-opacity="1" stop-color="rgb(2.488708%, 2.664185%, 22.654724%)" offset="0.539062"/><stop stop-opacity="1" stop-color="rgb(2.467346%, 2.929688%, 23.309326%)" offset="0.542969"/><stop stop-opacity="1" stop-color="rgb(2.445984%, 3.196716%, 23.965454%)" offset="0.546875"/><stop stop-opacity="1" stop-color="rgb(2.424622%, 3.462219%, 24.620056%)" offset="0.550781"/><stop stop-opacity="1" stop-color="rgb(2.403259%, 3.729248%, 25.276184%)" offset="0.554688"/><stop stop-opacity="1" stop-color="rgb(2.381897%, 3.994751%, 25.930786%)" offset="0.558594"/><stop stop-opacity="1" stop-color="rgb(2.362061%, 4.26178%, 26.586914%)" offset="0.5625"/><stop stop-opacity="1" stop-color="rgb(2.340698%, 4.527283%, 27.241516%)" offset="0.566406"/><stop stop-opacity="1" stop-color="rgb(2.319336%, 4.794312%, 27.897644%)" offset="0.570312"/><stop stop-opacity="1" stop-color="rgb(2.297974%, 5.059814%, 28.552246%)" offset="0.574219"/><stop stop-opacity="1" stop-color="rgb(2.276611%, 5.326843%, 29.208374%)" offset="0.578125"/><stop stop-opacity="1" stop-color="rgb(2.255249%, 5.593872%, 29.864502%)" offset="0.582031"/><stop stop-opacity="1" stop-color="rgb(2.235413%, 5.860901%, 30.52063%)" offset="0.585938"/><stop stop-opacity="1" stop-color="rgb(2.21405%, 6.126404%, 31.175232%)" offset="0.589844"/><stop stop-opacity="1" stop-color="rgb(2.192688%, 6.393433%, 31.83136%)" offset="0.59375"/><stop stop-opacity="1" stop-color="rgb(2.171326%, 6.658936%, 32.485962%)" offset="0.597656"/><stop stop-opacity="1" stop-color="rgb(2.151489%, 6.925964%, 33.14209%)" offset="0.601562"/><stop stop-opacity="1" stop-color="rgb(2.130127%, 7.191467%, 33.796692%)" offset="0.605469"/><stop stop-opacity="1" stop-color="rgb(2.108765%, 7.458496%, 34.45282%)" offset="0.609375"/><stop stop-opacity="1" stop-color="rgb(2.087402%, 7.723999%, 35.107422%)" offset="0.613281"/><stop stop-opacity="1" stop-color="rgb(2.06604%, 7.991028%, 35.76355%)" offset="0.617188"/><stop stop-opacity="1" stop-color="rgb(2.044678%, 8.258057%, 36.418152%)" offset="0.621094"/><stop stop-opacity="1" stop-color="rgb(2.024841%, 8.525085%, 37.07428%)" offset="0.625"/><stop stop-opacity="1" stop-color="rgb(2.003479%, 8.790588%, 37.728882%)" offset="0.628906"/><stop stop-opacity="1" stop-color="rgb(1.982117%, 9.057617%, 38.38501%)" offset="0.632812"/><stop stop-opacity="1" stop-color="rgb(1.960754%, 9.32312%, 39.039612%)" offset="0.636719"/><stop stop-opacity="1" stop-color="rgb(1.939392%, 9.590149%, 39.69574%)" offset="0.640625"/><stop stop-opacity="1" stop-color="rgb(1.91803%, 9.855652%, 40.351868%)" offset="0.644531"/><stop stop-opacity="1" stop-color="rgb(1.898193%, 10.122681%, 41.007996%)" offset="0.648438"/><stop stop-opacity="1" stop-color="rgb(1.876831%, 10.388184%, 41.662598%)" offset="0.652344"/><stop stop-opacity="1" stop-color="rgb(1.855469%, 10.655212%, 42.318726%)" offset="0.65625"/><stop stop-opacity="1" stop-color="rgb(1.834106%, 10.920715%, 42.973328%)" offset="0.660156"/><stop stop-opacity="1" stop-color="rgb(1.812744%, 11.187744%, 43.629456%)" offset="0.664062"/><stop stop-opacity="1" stop-color="rgb(1.791382%, 11.454773%, 44.284058%)" offset="0.667969"/><stop stop-opacity="1" stop-color="rgb(1.771545%, 11.721802%, 44.940186%)" offset="0.671875"/><stop stop-opacity="1" stop-color="rgb(1.750183%, 11.987305%, 45.594788%)" offset="0.675781"/><stop stop-opacity="1" stop-color="rgb(1.728821%, 12.254333%, 46.250916%)" offset="0.679688"/><stop stop-opacity="1" stop-color="rgb(1.707458%, 12.519836%, 46.905518%)" offset="0.683594"/><stop stop-opacity="1" stop-color="rgb(1.686096%, 12.786865%, 47.561646%)" offset="0.6875"/><stop stop-opacity="1" stop-color="rgb(1.664734%, 13.052368%, 48.216248%)" offset="0.691406"/><stop stop-opacity="1" stop-color="rgb(1.644897%, 13.319397%, 48.872375%)" offset="0.695312"/><stop stop-opacity="1" stop-color="rgb(1.623535%, 13.5849%, 49.528503%)" offset="0.699219"/><stop stop-opacity="1" stop-color="rgb(1.602173%, 13.851929%, 50.184631%)" offset="0.703125"/><stop stop-opacity="1" stop-color="rgb(1.580811%, 14.118958%, 50.839233%)" offset="0.707031"/><stop stop-opacity="1" stop-color="rgb(1.559448%, 14.385986%, 51.495361%)" offset="0.710938"/><stop stop-opacity="1" stop-color="rgb(1.538086%, 14.651489%, 52.149963%)" offset="0.714844"/><stop stop-opacity="1" stop-color="rgb(1.51825%, 14.918518%, 52.806091%)" offset="0.71875"/><stop stop-opacity="1" stop-color="rgb(1.496887%, 15.184021%, 53.460693%)" offset="0.722656"/><stop stop-opacity="1" stop-color="rgb(1.475525%, 15.45105%, 54.116821%)" offset="0.726562"/><stop stop-opacity="1" stop-color="rgb(1.454163%, 15.716553%, 54.771423%)" offset="0.730469"/><stop stop-opacity="1" stop-color="rgb(1.434326%, 15.983582%, 55.427551%)" offset="0.734375"/><stop stop-opacity="1" stop-color="rgb(1.412964%, 16.249084%, 56.082153%)" offset="0.738281"/><stop stop-opacity="1" stop-color="rgb(1.391602%, 16.516113%, 56.738281%)" offset="0.742188"/><stop stop-opacity="1" stop-color="rgb(1.370239%, 16.781616%, 57.392883%)" offset="0.746094"/><stop stop-opacity="1" stop-color="rgb(1.348877%, 17.048645%, 58.049011%)" offset="0.75"/><stop stop-opacity="1" stop-color="rgb(1.327515%, 17.315674%, 58.703613%)" offset="0.753906"/><stop stop-opacity="1" stop-color="rgb(1.307678%, 17.582703%, 59.359741%)" offset="0.757812"/><stop stop-opacity="1" stop-color="rgb(1.286316%, 17.848206%, 60.015869%)" offset="0.761719"/><stop stop-opacity="1" stop-color="rgb(1.264954%, 18.115234%, 60.671997%)" offset="0.765625"/><stop stop-opacity="1" stop-color="rgb(1.243591%, 18.380737%, 61.326599%)" offset="0.769531"/><stop stop-opacity="1" stop-color="rgb(1.222229%, 18.647766%, 61.982727%)" offset="0.773438"/><stop stop-opacity="1" stop-color="rgb(1.200867%, 18.913269%, 62.637329%)" offset="0.777344"/><stop stop-opacity="1" stop-color="rgb(1.18103%, 19.180298%, 63.293457%)" offset="0.78125"/><stop stop-opacity="1" stop-color="rgb(1.159668%, 19.445801%, 63.948059%)" offset="0.785156"/><stop stop-opacity="1" stop-color="rgb(1.138306%, 19.71283%, 64.604187%)" offset="0.789062"/><stop stop-opacity="1" stop-color="rgb(1.116943%, 19.979858%, 65.258789%)" offset="0.792969"/><stop stop-opacity="1" stop-color="rgb(1.095581%, 20.246887%, 65.914917%)" offset="0.796875"/><stop stop-opacity="1" stop-color="rgb(1.074219%, 20.51239%, 66.569519%)" offset="0.800781"/><stop stop-opacity="1" stop-color="rgb(1.054382%, 20.779419%, 67.225647%)" offset="0.804687"/><stop stop-opacity="1" stop-color="rgb(1.03302%, 21.044922%, 67.880249%)" offset="0.808594"/><stop stop-opacity="1" stop-color="rgb(1.011658%, 21.311951%, 68.536377%)" offset="0.8125"/><stop stop-opacity="1" stop-color="rgb(0.990295%, 21.577454%, 69.190979%)" offset="0.816406"/><stop stop-opacity="1" stop-color="rgb(0.968933%, 21.844482%, 69.847107%)" offset="0.820312"/><stop stop-opacity="1" stop-color="rgb(0.947571%, 22.109985%, 70.503235%)" offset="0.824219"/><stop stop-opacity="1" stop-color="rgb(0.927734%, 22.377014%, 71.159363%)" offset="0.828125"/><stop stop-opacity="1" stop-color="rgb(0.906372%, 22.642517%, 71.813965%)" offset="0.832031"/><stop stop-opacity="1" stop-color="rgb(0.88501%, 22.909546%, 72.470093%)" offset="0.835937"/><stop stop-opacity="1" stop-color="rgb(0.863647%, 23.176575%, 73.124695%)" offset="0.839844"/><stop stop-opacity="1" stop-color="rgb(0.842285%, 23.443604%, 73.780823%)" offset="0.84375"/><stop stop-opacity="1" stop-color="rgb(0.820923%, 23.709106%, 74.435425%)" offset="0.847656"/><stop stop-opacity="1" stop-color="rgb(0.801086%, 23.976135%, 75.091553%)" offset="0.851562"/><stop stop-opacity="1" stop-color="rgb(0.779724%, 24.241638%, 75.746155%)" offset="0.855469"/><stop stop-opacity="1" stop-color="rgb(0.758362%, 24.508667%, 76.402283%)" offset="0.859375"/><stop stop-opacity="1" stop-color="rgb(0.737%, 24.77417%, 77.056885%)" offset="0.863281"/><stop stop-opacity="1" stop-color="rgb(0.717163%, 25.041199%, 77.713013%)" offset="0.867187"/><stop stop-opacity="1" stop-color="rgb(0.695801%, 25.306702%, 78.367615%)" offset="0.871094"/><stop stop-opacity="1" stop-color="rgb(0.674438%, 25.57373%, 79.023743%)" offset="0.875"/><stop stop-opacity="1" stop-color="rgb(0.653076%, 25.840759%, 79.679871%)" offset="0.878906"/><stop stop-opacity="1" stop-color="rgb(0.631714%, 26.107788%, 80.335999%)" offset="0.882812"/><stop stop-opacity="1" stop-color="rgb(0.610352%, 26.373291%, 80.990601%)" offset="0.886719"/><stop stop-opacity="1" stop-color="rgb(0.590515%, 26.64032%, 81.646729%)" offset="0.890625"/><stop stop-opacity="1" stop-color="rgb(0.569153%, 26.905823%, 82.301331%)" offset="0.894531"/><stop stop-opacity="1" stop-color="rgb(0.547791%, 27.172852%, 82.957458%)" offset="0.898438"/><stop stop-opacity="1" stop-color="rgb(0.526428%, 27.438354%, 83.612061%)" offset="0.902344"/><stop stop-opacity="1" stop-color="rgb(0.505066%, 27.705383%, 84.268188%)" offset="0.90625"/><stop stop-opacity="1" stop-color="rgb(0.483704%, 27.970886%, 84.922791%)" offset="0.910156"/><stop stop-opacity="1" stop-color="rgb(0.463867%, 28.237915%, 85.578918%)" offset="0.914062"/><stop stop-opacity="1" stop-color="rgb(0.442505%, 28.503418%, 86.233521%)" offset="0.917969"/><stop stop-opacity="1" stop-color="rgb(0.421143%, 28.770447%, 86.889648%)" offset="0.921875"/><stop stop-opacity="1" stop-color="rgb(0.39978%, 29.037476%, 87.54425%)" offset="0.925781"/><stop stop-opacity="1" stop-color="rgb(0.378418%, 29.304504%, 88.200378%)" offset="0.929688"/><stop stop-opacity="1" stop-color="rgb(0.357056%, 29.570007%, 88.85498%)" offset="0.933594"/><stop stop-opacity="1" stop-color="rgb(0.337219%, 29.837036%, 89.511108%)" offset="0.9375"/><stop stop-opacity="1" stop-color="rgb(0.315857%, 30.102539%, 90.167236%)" offset="0.941406"/><stop stop-opacity="1" stop-color="rgb(0.294495%, 30.369568%, 90.823364%)" offset="0.945312"/><stop stop-opacity="1" stop-color="rgb(0.273132%, 30.635071%, 91.477966%)" offset="0.949219"/><stop stop-opacity="1" stop-color="rgb(0.25177%, 30.9021%, 92.134094%)" offset="0.953125"/><stop stop-opacity="1" stop-color="rgb(0.230408%, 31.167603%, 92.788696%)" offset="0.957031"/><stop stop-opacity="1" stop-color="rgb(0.210571%, 31.434631%, 93.444824%)" offset="0.960938"/><stop stop-opacity="1" stop-color="rgb(0.189209%, 31.70166%, 94.099426%)" offset="0.964844"/><stop stop-opacity="1" stop-color="rgb(0.167847%, 31.968689%, 94.755554%)" offset="0.96875"/><stop stop-opacity="1" stop-color="rgb(0.146484%, 32.234192%, 95.410156%)" offset="0.972656"/><stop stop-opacity="1" stop-color="rgb(0.125122%, 32.501221%, 96.066284%)" offset="0.976562"/><stop stop-opacity="1" stop-color="rgb(0.10376%, 32.766724%, 96.720886%)" offset="0.980469"/><stop stop-opacity="1" stop-color="rgb(0.0839233%, 33.033752%, 97.377014%)" offset="0.984375"/><stop stop-opacity="1" stop-color="rgb(0.062561%, 33.299255%, 98.031616%)" offset="0.988281"/><stop stop-opacity="1" stop-color="rgb(0.0411987%, 33.566284%, 98.687744%)" offset="0.992188"/><stop stop-opacity="1" stop-color="rgb(0.0198364%, 33.831787%, 99.343872%)" offset="0.996094"/><stop stop-opacity="1" stop-color="rgb(0%, 34.098816%, 100%)" offset="1"/></linearGradient><clipPath id="810406d909"><path d="M 128.558594 99.871094 L 211.585938 99.871094 L 211.585938 209.125 L 128.558594 209.125 Z M 128.558594 99.871094 " clip-rule="nonzero"/></clipPath><clipPath id="53538b82f7"><path d="M 139.03125 99.871094 L 200.855469 99.871094 C 206.640625 99.871094 211.332031 104.5625 211.332031 110.347656 L 211.332031 198.667969 C 211.332031 204.453125 206.640625 209.144531 200.855469 209.144531 L 139.03125 209.144531 C 133.246094 209.144531 128.558594 204.453125 128.558594 198.667969 L 128.558594 110.347656 C 128.558594 104.5625 133.246094 99.871094 139.03125 99.871094 Z M 139.03125 99.871094 " clip-rule="nonzero"/></clipPath><radialGradient gradientTransform="matrix(1.336264, 0, 0, 1.336264, 0.00000262444, -0.0000595998)" gradientUnits="userSpaceOnUse" r="137.082397" cx="0" id="11a5780c50" cy="0" fx="0" fy="0"><stop stop-opacity="1" stop-color="rgb(7.015991%, 0%, 83.944702%)" offset="0"/><stop stop-opacity="1" stop-color="rgb(7.649231%, 0%, 84.037781%)" offset="0.00390625"/><stop stop-opacity="1" stop-color="rgb(8.282471%, 0%, 84.129333%)" offset="0.0078125"/><stop stop-opacity="1" stop-color="rgb(8.91571%, 0%, 84.220886%)" offset="0.0117188"/><stop stop-opacity="1" stop-color="rgb(9.550476%, 0%, 84.313965%)" offset="0.015625"/><stop stop-opacity="1" stop-color="rgb(10.183716%, 0%, 84.405518%)" offset="0.0195312"/><stop stop-opacity="1" stop-color="rgb(10.816956%, 0%, 84.498596%)" offset="0.0234375"/><stop stop-opacity="1" stop-color="rgb(11.450195%, 0%, 84.590149%)" offset="0.0273438"/><stop stop-opacity="1" stop-color="rgb(12.084961%, 0%, 84.683228%)" offset="0.03125"/><stop stop-opacity="1" stop-color="rgb(12.718201%, 0%, 84.77478%)" offset="0.0351562"/><stop stop-opacity="1" stop-color="rgb(13.35144%, 0%, 84.866333%)" offset="0.0390625"/><stop stop-opacity="1" stop-color="rgb(13.98468%, 0%, 84.959412%)" offset="0.0429688"/><stop stop-opacity="1" stop-color="rgb(14.61792%, 0%, 85.050964%)" offset="0.046875"/><stop stop-opacity="1" stop-color="rgb(15.252686%, 0%, 85.144043%)" offset="0.0507812"/><stop stop-opacity="1" stop-color="rgb(15.885925%, 0%, 85.235596%)" offset="0.0546875"/><stop stop-opacity="1" stop-color="rgb(16.519165%, 0%, 85.327148%)" offset="0.0585938"/><stop stop-opacity="1" stop-color="rgb(17.152405%, 0%, 85.420227%)" offset="0.0625"/><stop stop-opacity="1" stop-color="rgb(17.78717%, 0%, 85.51178%)" offset="0.0664062"/><stop stop-opacity="1" stop-color="rgb(18.42041%, 0%, 85.604858%)" offset="0.0703125"/><stop stop-opacity="1" stop-color="rgb(19.05365%, 0%, 85.696411%)" offset="0.0742188"/><stop stop-opacity="1" stop-color="rgb(19.68689%, 0%, 85.78949%)" offset="0.078125"/><stop stop-opacity="1" stop-color="rgb(20.321655%, 0%, 85.881042%)" offset="0.0820312"/><stop stop-opacity="1" stop-color="rgb(20.954895%, 0%, 85.972595%)" offset="0.0859375"/><stop stop-opacity="1" stop-color="rgb(21.588135%, 0%, 86.065674%)" offset="0.0898438"/><stop stop-opacity="1" stop-color="rgb(22.221375%, 0%, 86.157227%)" offset="0.09375"/><stop stop-opacity="1" stop-color="rgb(22.854614%, 0%, 86.250305%)" offset="0.0976562"/><stop stop-opacity="1" stop-color="rgb(23.48938%, 0%, 86.341858%)" offset="0.101562"/><stop stop-opacity="1" stop-color="rgb(24.12262%, 0%, 86.433411%)" offset="0.105469"/><stop stop-opacity="1" stop-color="rgb(24.755859%, 0%, 86.526489%)" offset="0.109375"/><stop stop-opacity="1" stop-color="rgb(25.389099%, 0%, 86.618042%)" offset="0.113281"/><stop stop-opacity="1" stop-color="rgb(26.023865%, 0%, 86.711121%)" offset="0.117188"/><stop stop-opacity="1" stop-color="rgb(26.657104%, 0%, 86.802673%)" offset="0.121094"/><stop stop-opacity="1" stop-color="rgb(27.290344%, 0%, 86.895752%)" offset="0.125"/><stop stop-opacity="1" stop-color="rgb(27.923584%, 0%, 86.987305%)" offset="0.128906"/><stop stop-opacity="1" stop-color="rgb(28.55835%, 0%, 87.078857%)" offset="0.132812"/><stop stop-opacity="1" stop-color="rgb(29.191589%, 0%, 87.171936%)" offset="0.136719"/><stop stop-opacity="1" stop-color="rgb(29.824829%, 0%, 87.263489%)" offset="0.140625"/><stop stop-opacity="1" stop-color="rgb(30.458069%, 0%, 87.356567%)" offset="0.144531"/><stop stop-opacity="1" stop-color="rgb(31.091309%, 0%, 87.44812%)" offset="0.148438"/><stop stop-opacity="1" stop-color="rgb(31.726074%, 0%, 87.539673%)" offset="0.152344"/><stop stop-opacity="1" stop-color="rgb(32.359314%, 0%, 87.632751%)" offset="0.15625"/><stop stop-opacity="1" stop-color="rgb(32.992554%, 0%, 87.724304%)" offset="0.160156"/><stop stop-opacity="1" stop-color="rgb(33.625793%, 0%, 87.817383%)" offset="0.164062"/><stop stop-opacity="1" stop-color="rgb(34.260559%, 0%, 87.908936%)" offset="0.167969"/><stop stop-opacity="1" stop-color="rgb(34.893799%, 0%, 88.002014%)" offset="0.171875"/><stop stop-opacity="1" stop-color="rgb(35.527039%, 0%, 88.093567%)" offset="0.175781"/><stop stop-opacity="1" stop-color="rgb(36.160278%, 0%, 88.18512%)" offset="0.179688"/><stop stop-opacity="1" stop-color="rgb(36.795044%, 0%, 88.278198%)" offset="0.183594"/><stop stop-opacity="1" stop-color="rgb(37.428284%, 0%, 88.369751%)" offset="0.1875"/><stop stop-opacity="1" stop-color="rgb(38.061523%, 0%, 88.46283%)" offset="0.191406"/><stop stop-opacity="1" stop-color="rgb(38.694763%, 0%, 88.554382%)" offset="0.195312"/><stop stop-opacity="1" stop-color="rgb(39.328003%, 0%, 88.645935%)" offset="0.199219"/><stop stop-opacity="1" stop-color="rgb(39.962769%, 0%, 88.739014%)" offset="0.203125"/><stop stop-opacity="1" stop-color="rgb(40.596008%, 0%, 88.830566%)" offset="0.207031"/><stop stop-opacity="1" stop-color="rgb(41.229248%, 0%, 88.923645%)" offset="0.210938"/><stop stop-opacity="1" stop-color="rgb(41.862488%, 0%, 89.015198%)" offset="0.214844"/><stop stop-opacity="1" stop-color="rgb(42.497253%, 0%, 89.108276%)" offset="0.21875"/><stop stop-opacity="1" stop-color="rgb(43.130493%, 0%, 89.199829%)" offset="0.222656"/><stop stop-opacity="1" stop-color="rgb(43.763733%, 0%, 89.291382%)" offset="0.226562"/><stop stop-opacity="1" stop-color="rgb(44.396973%, 0%, 89.38446%)" offset="0.230469"/><stop stop-opacity="1" stop-color="rgb(45.031738%, 0%, 89.476013%)" offset="0.234375"/><stop stop-opacity="1" stop-color="rgb(45.664978%, 0%, 89.569092%)" offset="0.238281"/><stop stop-opacity="1" stop-color="rgb(46.298218%, 0%, 89.660645%)" offset="0.242188"/><stop stop-opacity="1" stop-color="rgb(46.931458%, 0%, 89.752197%)" offset="0.246094"/><stop stop-opacity="1" stop-color="rgb(47.564697%, 0%, 89.845276%)" offset="0.25"/><stop stop-opacity="1" stop-color="rgb(48.199463%, 0%, 89.936829%)" offset="0.253906"/><stop stop-opacity="1" stop-color="rgb(48.832703%, 0%, 90.029907%)" offset="0.257812"/><stop stop-opacity="1" stop-color="rgb(49.465942%, 0%, 90.12146%)" offset="0.261719"/><stop stop-opacity="1" stop-color="rgb(50.099182%, 0%, 90.213013%)" offset="0.265625"/><stop stop-opacity="1" stop-color="rgb(50.733948%, 0%, 90.306091%)" offset="0.269531"/><stop stop-opacity="1" stop-color="rgb(51.367188%, 0%, 90.397644%)" offset="0.273438"/><stop stop-opacity="1" stop-color="rgb(52.000427%, 0%, 90.490723%)" offset="0.277344"/><stop stop-opacity="1" stop-color="rgb(52.633667%, 0%, 90.582275%)" offset="0.28125"/><stop stop-opacity="1" stop-color="rgb(53.268433%, 0%, 90.675354%)" offset="0.285156"/><stop stop-opacity="1" stop-color="rgb(53.901672%, 0%, 90.766907%)" offset="0.289062"/><stop stop-opacity="1" stop-color="rgb(54.534912%, 0%, 90.858459%)" offset="0.292969"/><stop stop-opacity="1" stop-color="rgb(55.168152%, 0%, 90.951538%)" offset="0.296875"/><stop stop-opacity="1" stop-color="rgb(55.802917%, 0%, 91.043091%)" offset="0.300781"/><stop stop-opacity="1" stop-color="rgb(56.436157%, 0%, 91.136169%)" offset="0.304688"/><stop stop-opacity="1" stop-color="rgb(57.069397%, 0%, 91.227722%)" offset="0.308594"/><stop stop-opacity="1" stop-color="rgb(57.702637%, 0%, 91.319275%)" offset="0.3125"/><stop stop-opacity="1" stop-color="rgb(58.335876%, 0%, 91.412354%)" offset="0.316406"/><stop stop-opacity="1" stop-color="rgb(58.970642%, 0%, 91.503906%)" offset="0.320312"/><stop stop-opacity="1" stop-color="rgb(59.603882%, 0%, 91.596985%)" offset="0.324219"/><stop stop-opacity="1" stop-color="rgb(60.237122%, 0%, 91.688538%)" offset="0.328125"/><stop stop-opacity="1" stop-color="rgb(60.870361%, 0%, 91.781616%)" offset="0.332031"/><stop stop-opacity="1" stop-color="rgb(61.505127%, 0%, 91.873169%)" offset="0.335938"/><stop stop-opacity="1" stop-color="rgb(62.138367%, 0%, 91.964722%)" offset="0.339844"/><stop stop-opacity="1" stop-color="rgb(62.771606%, 0%, 92.0578%)" offset="0.34375"/><stop stop-opacity="1" stop-color="rgb(63.404846%, 0%, 92.149353%)" offset="0.347656"/><stop stop-opacity="1" stop-color="rgb(64.039612%, 0%, 92.242432%)" offset="0.351562"/><stop stop-opacity="1" stop-color="rgb(64.672852%, 0%, 92.333984%)" offset="0.355469"/><stop stop-opacity="1" stop-color="rgb(65.306091%, 0%, 92.425537%)" offset="0.359375"/><stop stop-opacity="1" stop-color="rgb(65.939331%, 0%, 92.518616%)" offset="0.363281"/><stop stop-opacity="1" stop-color="rgb(66.572571%, 0%, 92.610168%)" offset="0.367188"/><stop stop-opacity="1" stop-color="rgb(67.207336%, 0%, 92.703247%)" offset="0.371094"/><stop stop-opacity="1" stop-color="rgb(67.840576%, 0%, 92.7948%)" offset="0.375"/><stop stop-opacity="1" stop-color="rgb(68.473816%, 0%, 92.887878%)" offset="0.378906"/><stop stop-opacity="1" stop-color="rgb(69.107056%, 0%, 92.979431%)" offset="0.382812"/><stop stop-opacity="1" stop-color="rgb(69.741821%, 0%, 93.070984%)" offset="0.386719"/><stop stop-opacity="1" stop-color="rgb(70.375061%, 0%, 93.164062%)" offset="0.390625"/><stop stop-opacity="1" stop-color="rgb(71.008301%, 0%, 93.255615%)" offset="0.394531"/><stop stop-opacity="1" stop-color="rgb(71.641541%, 0%, 93.348694%)" offset="0.398438"/><stop stop-opacity="1" stop-color="rgb(72.276306%, 0%, 93.440247%)" offset="0.402344"/><stop stop-opacity="1" stop-color="rgb(72.909546%, 0%, 93.531799%)" offset="0.40625"/><stop stop-opacity="1" stop-color="rgb(73.542786%, 0%, 93.624878%)" offset="0.410156"/><stop stop-opacity="1" stop-color="rgb(74.176025%, 0%, 93.716431%)" offset="0.414062"/><stop stop-opacity="1" stop-color="rgb(74.809265%, 0%, 93.809509%)" offset="0.417969"/><stop stop-opacity="1" stop-color="rgb(75.444031%, 0%, 93.901062%)" offset="0.421875"/><stop stop-opacity="1" stop-color="rgb(76.077271%, 0%, 93.994141%)" offset="0.425781"/><stop stop-opacity="1" stop-color="rgb(76.71051%, 0%, 94.085693%)" offset="0.429688"/><stop stop-opacity="1" stop-color="rgb(77.34375%, 0%, 94.177246%)" offset="0.433594"/><stop stop-opacity="1" stop-color="rgb(77.978516%, 0%, 94.270325%)" offset="0.4375"/><stop stop-opacity="1" stop-color="rgb(78.611755%, 0%, 94.361877%)" offset="0.441406"/><stop stop-opacity="1" stop-color="rgb(79.244995%, 0%, 94.454956%)" offset="0.445312"/><stop stop-opacity="1" stop-color="rgb(79.878235%, 0%, 94.546509%)" offset="0.449219"/><stop stop-opacity="1" stop-color="rgb(80.513%, 0%, 94.638062%)" offset="0.453125"/><stop stop-opacity="1" stop-color="rgb(81.14624%, 0%, 94.73114%)" offset="0.457031"/><stop stop-opacity="1" stop-color="rgb(81.77948%, 0%, 94.822693%)" offset="0.460938"/><stop stop-opacity="1" stop-color="rgb(82.41272%, 0%, 94.915771%)" offset="0.464844"/><stop stop-opacity="1" stop-color="rgb(83.045959%, 0%, 95.007324%)" offset="0.46875"/><stop stop-opacity="1" stop-color="rgb(83.680725%, 0%, 95.100403%)" offset="0.472656"/><stop stop-opacity="1" stop-color="rgb(84.313965%, 0%, 95.191956%)" offset="0.476562"/><stop stop-opacity="1" stop-color="rgb(84.947205%, 0%, 95.283508%)" offset="0.480469"/><stop stop-opacity="1" stop-color="rgb(85.580444%, 0%, 95.376587%)" offset="0.484375"/><stop stop-opacity="1" stop-color="rgb(86.21521%, 0%, 95.46814%)" offset="0.488281"/><stop stop-opacity="1" stop-color="rgb(86.84845%, 0%, 95.561218%)" offset="0.492188"/><stop stop-opacity="1" stop-color="rgb(87.481689%, 0%, 95.652771%)" offset="0.496094"/><stop stop-opacity="1" stop-color="rgb(87.45575%, 0.361633%, 95.698547%)" offset="0.5"/><stop stop-opacity="1" stop-color="rgb(86.77063%, 1.087952%, 95.698547%)" offset="0.503906"/><stop stop-opacity="1" stop-color="rgb(86.083984%, 1.812744%, 95.698547%)" offset="0.507812"/><stop stop-opacity="1" stop-color="rgb(85.398865%, 2.539062%, 95.698547%)" offset="0.511719"/><stop stop-opacity="1" stop-color="rgb(84.712219%, 3.265381%, 95.698547%)" offset="0.515625"/><stop stop-opacity="1" stop-color="rgb(84.025574%, 3.990173%, 95.698547%)" offset="0.519531"/><stop stop-opacity="1" stop-color="rgb(83.340454%, 4.716492%, 95.698547%)" offset="0.523438"/><stop stop-opacity="1" stop-color="rgb(82.653809%, 5.44281%, 95.698547%)" offset="0.527344"/><stop stop-opacity="1" stop-color="rgb(81.968689%, 6.167603%, 95.698547%)" offset="0.53125"/><stop stop-opacity="1" stop-color="rgb(81.282043%, 6.893921%, 95.698547%)" offset="0.535156"/><stop stop-opacity="1" stop-color="rgb(80.596924%, 7.620239%, 95.698547%)" offset="0.539062"/><stop stop-opacity="1" stop-color="rgb(79.910278%, 8.345032%, 95.698547%)" offset="0.542969"/><stop stop-opacity="1" stop-color="rgb(79.225159%, 9.07135%, 95.698547%)" offset="0.546875"/><stop stop-opacity="1" stop-color="rgb(78.538513%, 9.797668%, 95.698547%)" offset="0.550781"/><stop stop-opacity="1" stop-color="rgb(77.853394%, 10.522461%, 95.698547%)" offset="0.554688"/><stop stop-opacity="1" stop-color="rgb(77.166748%, 11.248779%, 95.698547%)" offset="0.558594"/><stop stop-opacity="1" stop-color="rgb(76.481628%, 11.975098%, 95.698547%)" offset="0.5625"/><stop stop-opacity="1" stop-color="rgb(75.794983%, 12.69989%, 95.698547%)" offset="0.566406"/><stop stop-opacity="1" stop-color="rgb(75.108337%, 13.426208%, 95.698547%)" offset="0.570312"/><stop stop-opacity="1" stop-color="rgb(74.423218%, 14.151001%, 95.698547%)" offset="0.574219"/><stop stop-opacity="1" stop-color="rgb(73.736572%, 14.877319%, 95.698547%)" offset="0.578125"/><stop stop-opacity="1" stop-color="rgb(73.051453%, 15.603638%, 95.698547%)" offset="0.582031"/><stop stop-opacity="1" stop-color="rgb(72.364807%, 16.32843%, 95.698547%)" offset="0.585938"/><stop stop-opacity="1" stop-color="rgb(71.679688%, 17.054749%, 95.698547%)" offset="0.589844"/><stop stop-opacity="1" stop-color="rgb(70.993042%, 17.781067%, 95.698547%)" offset="0.59375"/><stop stop-opacity="1" stop-color="rgb(70.307922%, 18.505859%, 95.698547%)" offset="0.597656"/><stop stop-opacity="1" stop-color="rgb(69.621277%, 19.232178%, 95.698547%)" offset="0.601562"/><stop stop-opacity="1" stop-color="rgb(68.936157%, 19.958496%, 95.698547%)" offset="0.605469"/><stop stop-opacity="1" stop-color="rgb(68.249512%, 20.683289%, 95.698547%)" offset="0.609375"/><stop stop-opacity="1" stop-color="rgb(67.564392%, 21.409607%, 95.698547%)" offset="0.613281"/><stop stop-opacity="1" stop-color="rgb(66.877747%, 22.135925%, 95.698547%)" offset="0.617188"/><stop stop-opacity="1" stop-color="rgb(66.191101%, 22.860718%, 95.698547%)" offset="0.621094"/><stop stop-opacity="1" stop-color="rgb(65.505981%, 23.587036%, 95.698547%)" offset="0.625"/><stop stop-opacity="1" stop-color="rgb(64.819336%, 24.313354%, 95.698547%)" offset="0.628906"/><stop stop-opacity="1" stop-color="rgb(64.134216%, 25.038147%, 95.698547%)" offset="0.632812"/><stop stop-opacity="1" stop-color="rgb(63.447571%, 25.764465%, 95.698547%)" offset="0.636719"/><stop stop-opacity="1" stop-color="rgb(62.762451%, 26.489258%, 95.698547%)" offset="0.640625"/><stop stop-opacity="1" stop-color="rgb(62.075806%, 27.215576%, 95.698547%)" offset="0.644531"/><stop stop-opacity="1" stop-color="rgb(61.390686%, 27.941895%, 95.698547%)" offset="0.648438"/><stop stop-opacity="1" stop-color="rgb(60.704041%, 28.666687%, 95.698547%)" offset="0.652344"/><stop stop-opacity="1" stop-color="rgb(60.018921%, 29.393005%, 95.698547%)" offset="0.65625"/><stop stop-opacity="1" stop-color="rgb(59.332275%, 30.119324%, 95.698547%)" offset="0.660156"/><stop stop-opacity="1" stop-color="rgb(58.647156%, 30.844116%, 95.698547%)" offset="0.664062"/><stop stop-opacity="1" stop-color="rgb(57.96051%, 31.570435%, 95.698547%)" offset="0.667969"/><stop stop-opacity="1" stop-color="rgb(57.275391%, 32.296753%, 95.698547%)" offset="0.671875"/><stop stop-opacity="1" stop-color="rgb(56.588745%, 33.021545%, 95.698547%)" offset="0.675781"/><stop stop-opacity="1" stop-color="rgb(55.9021%, 33.747864%, 95.698547%)" offset="0.679688"/><stop stop-opacity="1" stop-color="rgb(55.21698%, 34.474182%, 95.698547%)" offset="0.683594"/><stop stop-opacity="1" stop-color="rgb(54.530334%, 35.198975%, 95.698547%)" offset="0.6875"/><stop stop-opacity="1" stop-color="rgb(53.845215%, 35.925293%, 95.698547%)" offset="0.691406"/><stop stop-opacity="1" stop-color="rgb(53.158569%, 36.651611%, 95.698547%)" offset="0.695312"/><stop stop-opacity="1" stop-color="rgb(52.47345%, 37.376404%, 95.698547%)" offset="0.699219"/><stop stop-opacity="1" stop-color="rgb(51.786804%, 38.102722%, 95.698547%)" offset="0.703125"/><stop stop-opacity="1" stop-color="rgb(51.101685%, 38.827515%, 95.698547%)" offset="0.707031"/><stop stop-opacity="1" stop-color="rgb(50.415039%, 39.553833%, 95.698547%)" offset="0.710938"/><stop stop-opacity="1" stop-color="rgb(49.729919%, 40.280151%, 95.698547%)" offset="0.714844"/><stop stop-opacity="1" stop-color="rgb(49.043274%, 41.004944%, 95.698547%)" offset="0.71875"/><stop stop-opacity="1" stop-color="rgb(48.358154%, 41.731262%, 95.698547%)" offset="0.722656"/><stop stop-opacity="1" stop-color="rgb(47.671509%, 42.457581%, 95.698547%)" offset="0.726562"/><stop stop-opacity="1" stop-color="rgb(46.984863%, 43.182373%, 95.698547%)" offset="0.730469"/><stop stop-opacity="1" stop-color="rgb(46.299744%, 43.908691%, 95.698547%)" offset="0.734375"/><stop stop-opacity="1" stop-color="rgb(45.613098%, 44.63501%, 95.698547%)" offset="0.738281"/><stop stop-opacity="1" stop-color="rgb(44.927979%, 45.359802%, 95.698547%)" offset="0.742188"/><stop stop-opacity="1" stop-color="rgb(44.241333%, 46.086121%, 95.698547%)" offset="0.746094"/><stop stop-opacity="1" stop-color="rgb(43.556213%, 46.812439%, 95.698547%)" offset="0.75"/><stop stop-opacity="1" stop-color="rgb(42.869568%, 47.537231%, 95.698547%)" offset="0.753906"/><stop stop-opacity="1" stop-color="rgb(42.184448%, 48.26355%, 95.698547%)" offset="0.757812"/><stop stop-opacity="1" stop-color="rgb(41.497803%, 48.989868%, 95.698547%)" offset="0.761719"/><stop stop-opacity="1" stop-color="rgb(40.812683%, 49.714661%, 95.698547%)" offset="0.765625"/><stop stop-opacity="1" stop-color="rgb(40.126038%, 50.440979%, 95.698547%)" offset="0.769531"/><stop stop-opacity="1" stop-color="rgb(39.440918%, 51.167297%, 95.698547%)" offset="0.773438"/><stop stop-opacity="1" stop-color="rgb(38.754272%, 51.89209%, 95.698547%)" offset="0.777344"/><stop stop-opacity="1" stop-color="rgb(38.069153%, 52.618408%, 95.698547%)" offset="0.78125"/><stop stop-opacity="1" stop-color="rgb(37.382507%, 53.343201%, 95.698547%)" offset="0.785156"/><stop stop-opacity="1" stop-color="rgb(36.695862%, 54.069519%, 95.698547%)" offset="0.789062"/><stop stop-opacity="1" stop-color="rgb(36.010742%, 54.795837%, 95.698547%)" offset="0.792969"/><stop stop-opacity="1" stop-color="rgb(35.324097%, 55.52063%, 95.698547%)" offset="0.796875"/><stop stop-opacity="1" stop-color="rgb(34.638977%, 56.246948%, 95.698547%)" offset="0.800781"/><stop stop-opacity="1" stop-color="rgb(33.952332%, 56.973267%, 95.698547%)" offset="0.804688"/><stop stop-opacity="1" stop-color="rgb(33.267212%, 57.698059%, 95.698547%)" offset="0.808594"/><stop stop-opacity="1" stop-color="rgb(32.580566%, 58.424377%, 95.698547%)" offset="0.8125"/><stop stop-opacity="1" stop-color="rgb(31.895447%, 59.150696%, 95.698547%)" offset="0.816406"/><stop stop-opacity="1" stop-color="rgb(31.208801%, 59.875488%, 95.698547%)" offset="0.820312"/><stop stop-opacity="1" stop-color="rgb(30.523682%, 60.601807%, 95.698547%)" offset="0.824219"/><stop stop-opacity="1" stop-color="rgb(29.837036%, 61.328125%, 95.698547%)" offset="0.828125"/><stop stop-opacity="1" stop-color="rgb(29.151917%, 62.052917%, 95.698547%)" offset="0.832031"/><stop stop-opacity="1" stop-color="rgb(28.465271%, 62.779236%, 95.698547%)" offset="0.835938"/><stop stop-opacity="1" stop-color="rgb(27.778625%, 63.505554%, 95.698547%)" offset="0.839844"/><stop stop-opacity="1" stop-color="rgb(27.093506%, 64.230347%, 95.698547%)" offset="0.84375"/><stop stop-opacity="1" stop-color="rgb(26.40686%, 64.956665%, 95.698547%)" offset="0.847656"/><stop stop-opacity="1" stop-color="rgb(25.721741%, 65.681458%, 95.698547%)" offset="0.851562"/><stop stop-opacity="1" stop-color="rgb(25.035095%, 66.407776%, 95.698547%)" offset="0.855469"/><stop stop-opacity="1" stop-color="rgb(24.349976%, 67.134094%, 95.698547%)" offset="0.859375"/><stop stop-opacity="1" stop-color="rgb(23.66333%, 67.858887%, 95.698547%)" offset="0.863281"/><stop stop-opacity="1" stop-color="rgb(22.97821%, 68.585205%, 95.698547%)" offset="0.867188"/><stop stop-opacity="1" stop-color="rgb(22.291565%, 69.311523%, 95.698547%)" offset="0.871094"/><stop stop-opacity="1" stop-color="rgb(21.606445%, 70.036316%, 95.698547%)" offset="0.875"/><stop stop-opacity="1" stop-color="rgb(20.9198%, 70.762634%, 95.698547%)" offset="0.878906"/><stop stop-opacity="1" stop-color="rgb(20.23468%, 71.488953%, 95.698547%)" offset="0.882812"/><stop stop-opacity="1" stop-color="rgb(19.548035%, 72.213745%, 95.698547%)" offset="0.886719"/><stop stop-opacity="1" stop-color="rgb(18.862915%, 72.940063%, 95.698547%)" offset="0.890625"/><stop stop-opacity="1" stop-color="rgb(18.17627%, 73.666382%, 95.698547%)" offset="0.894531"/><stop stop-opacity="1" stop-color="rgb(17.489624%, 74.391174%, 95.698547%)" offset="0.898438"/><stop stop-opacity="1" stop-color="rgb(16.804504%, 75.117493%, 95.698547%)" offset="0.902344"/><stop stop-opacity="1" stop-color="rgb(16.117859%, 75.843811%, 95.698547%)" offset="0.90625"/><stop stop-opacity="1" stop-color="rgb(15.432739%, 76.568604%, 95.698547%)" offset="0.910156"/><stop stop-opacity="1" stop-color="rgb(14.746094%, 77.294922%, 95.698547%)" offset="0.914062"/><stop stop-opacity="1" stop-color="rgb(14.060974%, 78.019714%, 95.698547%)" offset="0.917969"/><stop stop-opacity="1" stop-color="rgb(13.374329%, 78.746033%, 95.698547%)" offset="0.921875"/><stop stop-opacity="1" stop-color="rgb(12.689209%, 79.472351%, 95.698547%)" offset="0.925781"/><stop stop-opacity="1" stop-color="rgb(12.002563%, 80.197144%, 95.698547%)" offset="0.929688"/><stop stop-opacity="1" stop-color="rgb(11.317444%, 80.923462%, 95.698547%)" offset="0.933594"/><stop stop-opacity="1" stop-color="rgb(10.630798%, 81.64978%, 95.698547%)" offset="0.9375"/><stop stop-opacity="1" stop-color="rgb(9.945679%, 82.374573%, 95.698547%)" offset="0.941406"/><stop stop-opacity="1" stop-color="rgb(9.259033%, 83.100891%, 95.698547%)" offset="0.945312"/><stop stop-opacity="1" stop-color="rgb(8.572388%, 83.827209%, 95.698547%)" offset="0.949219"/><stop stop-opacity="1" stop-color="rgb(7.887268%, 84.552002%, 95.698547%)" offset="0.953125"/><stop stop-opacity="1" stop-color="rgb(7.200623%, 85.27832%, 95.698547%)" offset="0.957031"/><stop stop-opacity="1" stop-color="rgb(6.515503%, 86.004639%, 95.698547%)" offset="0.960938"/><stop stop-opacity="1" stop-color="rgb(5.828857%, 86.729431%, 95.698547%)" offset="0.964844"/><stop stop-opacity="1" stop-color="rgb(5.143738%, 87.45575%, 95.698547%)" offset="0.96875"/><stop stop-opacity="1" stop-color="rgb(4.457092%, 88.182068%, 95.698547%)" offset="0.972656"/><stop stop-opacity="1" stop-color="rgb(3.771973%, 88.90686%, 95.698547%)" offset="0.976562"/><stop stop-opacity="1" stop-color="rgb(3.085327%, 89.633179%, 95.698547%)" offset="0.980469"/><stop stop-opacity="1" stop-color="rgb(2.400208%, 90.359497%, 95.698547%)" offset="0.984375"/><stop stop-opacity="1" stop-color="rgb(1.713562%, 91.08429%, 95.698547%)" offset="0.988281"/><stop stop-opacity="1" stop-color="rgb(1.028442%, 91.810608%, 95.698547%)" offset="0.992188"/><stop stop-opacity="1" stop-color="rgb(0.341797%, 92.5354%, 95.698547%)" offset="0.996094"/><stop stop-opacity="1" stop-color="rgb(0%, 92.89856%, 95.698547%)" offset="1"/></radialGradient><clipPath id="101d4e10ca"><path d="M 120.359375 94.28125 L 219.890625 94.28125 L 219.890625 215.511719 L 120.359375 215.511719 Z M 120.359375 94.28125 " clip-rule="nonzero"/></clipPath><clipPath id="83e9493627"><path d="M 130.835938 94.28125 L 209.660156 94.28125 C 215.445312 94.28125 220.136719 98.96875 220.136719 104.757812 L 220.136719 205 C 220.136719 210.785156 215.445312 215.476562 209.660156 215.476562 L 130.835938 215.476562 C 125.050781 215.476562 120.359375 210.785156 120.359375 205 L 120.359375 104.757812 C 120.359375 98.96875 125.050781 94.28125 130.835938 94.28125 Z M 130.835938 94.28125 " clip-rule="nonzero"/></clipPath><clipPath id="8acf27aeec"><path d="M 156 134.347656 L 191 134.347656 L 191 174.757812 L 156 174.757812 Z M 156 134.347656 " clip-rule="nonzero"/></clipPath></defs><g clip-path="url(#68e70b1ddb)"><path fill="#ffffff" d="M 321.199219 1303.445312 C 320.855469 1303.445312 320.59375 1303.34375 320.410156 1303.144531 C 320.226562 1302.949219 320.132812 1302.667969 320.132812 1302.308594 L 320.132812 1299.898438 L 317.878906 1299.898438 C 317.542969 1299.898438 317.289062 1299.808594 317.113281 1299.628906 C 316.933594 1299.445312 316.84375 1299.183594 316.84375 1298.835938 C 316.84375 1298.488281 316.933594 1298.222656 317.113281 1298.042969 C 317.289062 1297.863281 317.546875 1297.773438 317.878906 1297.773438 L 320.132812 1297.773438 L 320.132812 1295.449219 C 320.132812 1295.089844 320.226562 1294.816406 320.410156 1294.621094 C 320.59375 1294.429688 320.863281 1294.335938 321.21875 1294.335938 C 321.5625 1294.335938 321.824219 1294.429688 322 1294.621094 C 322.179688 1294.816406 322.269531 1295.089844 322.269531 1295.449219 L 322.269531 1297.773438 L 324.523438 1297.773438 C 324.855469 1297.773438 325.109375 1297.863281 325.289062 1298.042969 C 325.464844 1298.222656 325.554688 1298.488281 325.554688 1298.835938 C 325.554688 1299.183594 325.464844 1299.449219 325.289062 1299.628906 C 325.109375 1299.808594 324.855469 1299.898438 324.523438 1299.898438 L 322.269531 1299.898438 L 322.269531 1302.308594 C 322.269531 1302.667969 322.179688 1302.949219 322 1303.148438 C 321.824219 1303.34375 321.554688 1303.445312 321.199219 1303.445312 Z M 321.199219 1303.445312 " fill-opacity="1" fill-rule="nonzero"/></g><g clip-path="url(#ee2d49dd12)"><g clip-path="url(#05ffbf8098)"><path fill="url(#f94231ef5b)" d="M 128.558594 99.867188 L 128.558594 209.152344 L 211.34375 209.152344 L 211.34375 99.867188 Z M 128.558594 99.867188 " fill-rule="nonzero"/></g></g><g clip-path="url(#810406d909)"><g clip-path="url(#53538b82f7)"><path stroke-linecap="butt" transform="matrix(0.748355, 0, 0, 0.748355, 128.557313, 99.872825)" fill="none" stroke-linejoin="miter" d="M 13.995942 -0.00231275 L 96.609407 -0.00231275 C 104.339902 -0.00231275 110.608858 6.266644 110.608858 13.997138 L 110.608858 132.016374 C 110.608858 139.746869 104.339902 146.015825 96.609407 146.015825 L 13.995942 146.015825 C 6.265447 146.015825 0.00171077 139.746869 0.00171077 132.016374 L 0.00171077 13.997138 C 0.00171077 6.266644 6.265447 -0.00231275 13.995942 -0.00231275 Z M 13.995942 -0.00231275 " stroke="url(#11a5780c50)" stroke-width="8" stroke-miterlimit="4"/></g></g><g clip-path="url(#101d4e10ca)"><g clip-path="url(#83e9493627)"><path stroke-linecap="butt" transform="matrix(0.748355, 0, 0, 0.748355, 120.36034, 94.279438)" fill="none" stroke-linejoin="miter" d="M 13.998161 0.00242145 L 119.328111 0.00242145 C 127.058605 0.00242145 133.327562 6.266158 133.327562 14.001873 L 133.327562 147.951878 C 133.327562 155.682373 127.058605 161.951329 119.328111 161.951329 L 13.998161 161.951329 C 6.267666 161.951329 -0.00128997 155.682373 -0.00128997 147.951878 L -0.00128997 14.001873 C -0.00128997 6.266158 6.267666 0.00242145 13.998161 0.00242145 Z M 13.998161 0.00242145 " stroke="#091e5d" stroke-width="4" stroke-opacity="1" stroke-miterlimit="4"/></g></g><g clip-path="url(#8acf27aeec)"><path fill="#ffffff" d="M 172.394531 142.089844 C 172.453125 142.089844 172.511719 142.082031 172.570312 142.066406 C 172.792969 142.003906 172.96875 141.828125 173.023438 141.601562 L 174.652344 135.222656 C 174.710938 134.996094 174.644531 134.757812 174.480469 134.597656 C 174.3125 134.433594 174.074219 134.371094 173.847656 134.4375 L 167.507812 136.214844 C 167.285156 136.277344 167.113281 136.453125 167.054688 136.679688 C 166.996094 136.90625 167.0625 137.144531 167.230469 137.304688 L 171.941406 141.90625 C 172.0625 142.027344 172.226562 142.089844 172.394531 142.089844 Z M 173.117188 135.988281 L 172.042969 140.191406 L 168.941406 137.160156 Z M 163.101562 162.632812 C 163.886719 163.242188 165.222656 163.242188 166.007812 162.632812 C 166.289062 162.410156 166.699219 162.464844 166.917969 162.746094 C 167.136719 163.03125 167.085938 163.4375 166.804688 163.65625 C 166.1875 164.140625 165.386719 164.402344 164.554688 164.402344 C 163.722656 164.402344 162.925781 164.140625 162.304688 163.65625 C 162.023438 163.4375 161.972656 163.027344 162.191406 162.746094 C 162.410156 162.464844 162.820312 162.410156 163.101562 162.632812 Z M 179.261719 156.722656 C 179.261719 157.675781 178.890625 158.570312 178.214844 159.246094 L 176.234375 161.226562 C 175.832031 161.628906 175.300781 161.847656 174.734375 161.847656 C 173.570312 161.847656 172.621094 160.898438 172.621094 159.730469 L 172.621094 159.640625 C 172.621094 159.28125 172.910156 158.992188 173.269531 158.992188 C 173.628906 158.992188 173.917969 159.28125 173.917969 159.640625 L 173.917969 159.730469 C 173.917969 160.179688 174.285156 160.550781 174.734375 160.550781 C 174.953125 160.550781 175.160156 160.464844 175.316406 160.308594 L 177.296875 158.328125 C 177.726562 157.898438 177.960938 157.328125 177.960938 156.722656 C 177.960938 155.46875 176.941406 154.449219 175.691406 154.449219 C 174.9375 154.449219 174.230469 154.824219 173.808594 155.453125 C 173.605469 155.75 173.203125 155.828125 172.90625 155.628906 C 172.609375 155.425781 172.53125 155.023438 172.730469 154.726562 C 173.398438 153.742188 174.503906 153.152344 175.691406 153.152344 C 177.660156 153.152344 179.261719 154.753906 179.261719 156.722656 Z M 163.914062 156.308594 C 163.554688 156.308594 163.261719 156.019531 163.261719 155.660156 L 163.261719 154.339844 C 163.261719 153.980469 163.554688 153.691406 163.914062 153.691406 C 164.273438 153.691406 164.5625 153.980469 164.5625 154.339844 L 164.5625 155.660156 C 164.5625 156.019531 164.273438 156.308594 163.914062 156.308594 Z M 188.363281 135.570312 C 186.96875 135.570312 185.835938 136.703125 185.835938 138.097656 C 185.835938 138.773438 186.109375 139.386719 186.546875 139.84375 L 185.742188 141.171875 L 184.445312 139.875 C 184.445312 139.847656 184.453125 139.820312 184.453125 139.792969 C 184.453125 139.023438 184.152344 138.300781 183.609375 137.757812 C 181.921875 136.070312 178.949219 136.472656 178.824219 136.488281 C 178.539062 136.527344 178.3125 136.753906 178.273438 137.039062 C 178.253906 137.167969 177.855469 140.136719 179.542969 141.824219 C 180.101562 142.386719 180.839844 142.667969 181.574219 142.667969 C 181.605469 142.667969 181.636719 142.660156 181.664062 142.65625 L 183.644531 144.640625 L 182.03125 147.3125 C 181.808594 147.25 181.578125 147.203125 181.335938 147.203125 C 180.882812 147.203125 180.46875 147.332031 180.101562 147.539062 L 178.105469 145.503906 C 178.328125 145.125 178.464844 144.691406 178.464844 144.222656 C 178.464844 142.828125 177.332031 141.695312 175.9375 141.695312 C 174.546875 141.695312 173.414062 142.828125 173.414062 144.222656 C 173.414062 144.914062 173.695312 145.539062 174.144531 145.996094 L 171.878906 149.851562 L 170.628906 149.851562 C 171.550781 148.53125 171.886719 146.851562 171.484375 145.25 C 171.480469 145.242188 171.484375 145.234375 171.480469 145.226562 C 171.113281 143.765625 170.195312 142.535156 168.902344 141.761719 C 167.605469 140.988281 166.089844 140.765625 164.625 141.136719 C 164.621094 141.136719 164.617188 141.140625 164.613281 141.144531 C 161.601562 141.910156 159.773438 144.980469 160.53125 147.992188 C 160.707031 148.671875 161.007812 149.292969 161.402344 149.851562 L 159.984375 149.851562 C 159.65625 149.851562 159.378906 150.09375 159.339844 150.417969 C 159.242188 151.164062 159.199219 151.78125 159.199219 152.355469 L 159.199219 154.292969 L 156.476562 158.472656 C 156.160156 158.960938 156.066406 159.5625 156.226562 160.121094 C 156.386719 160.683594 156.78125 161.144531 157.3125 161.390625 L 159.265625 162.300781 L 160.035156 166.707031 C 160.429688 168.949219 162.367188 170.574219 164.644531 170.574219 L 168.222656 170.574219 C 168.691406 170.574219 169.101562 170.902344 169.195312 171.363281 L 169.773438 174.148438 C 169.835938 174.453125 170.109375 174.664062 170.410156 174.664062 C 170.453125 174.664062 170.496094 174.660156 170.542969 174.648438 C 170.894531 174.578125 171.117188 174.234375 171.046875 173.882812 L 170.46875 171.097656 C 170.25 170.042969 169.304688 169.273438 168.222656 169.273438 L 164.644531 169.273438 C 163 169.273438 161.601562 168.097656 161.316406 166.480469 L 160.484375 161.742188 C 160.449219 161.53125 160.3125 161.355469 160.121094 161.265625 L 157.863281 160.214844 C 157.667969 160.125 157.53125 159.964844 157.476562 159.765625 C 157.417969 159.566406 157.449219 159.359375 157.566406 159.183594 L 160.390625 154.839844 C 160.460938 154.734375 160.496094 154.609375 160.496094 154.484375 L 160.496094 152.355469 C 160.496094 151.980469 160.515625 151.59375 160.5625 151.148438 L 179.25 151.148438 C 179.703125 151.816406 180.46875 152.253906 181.335938 152.253906 C 182.203125 152.253906 182.96875 151.816406 183.421875 151.148438 L 187.378906 151.148438 C 187.257812 153.894531 186.398438 157.292969 185.117188 160.011719 C 184.609375 161.089844 183.96875 162.496094 183.367188 163.863281 C 182.507812 165.78125 182.277344 167.902344 182.707031 169.984375 L 183.570312 174.148438 C 183.636719 174.453125 183.90625 174.664062 184.207031 174.664062 C 184.25 174.664062 184.292969 174.660156 184.339844 174.652344 C 184.691406 174.578125 184.914062 174.234375 184.84375 173.882812 L 183.980469 169.722656 C 183.605469 167.90625 183.804688 166.0625 184.554688 164.390625 C 185.15625 163.027344 185.789062 161.636719 186.292969 160.566406 C 187.75 157.46875 188.691406 153.515625 188.691406 150.5 C 188.691406 150.140625 188.402344 149.851562 188.042969 149.851562 L 183.851562 149.851562 C 183.851562 149.808594 183.863281 149.769531 183.863281 149.726562 C 183.863281 149.046875 183.589844 148.433594 183.152344 147.976562 L 184.59375 145.585938 L 186.007812 146.996094 C 186.378906 147.371094 186.875 147.578125 187.394531 147.578125 C 187.921875 147.578125 188.414062 147.371094 188.789062 147 C 189.550781 146.238281 189.550781 144.988281 188.789062 144.214844 L 186.6875 142.117188 L 187.660156 140.507812 C 187.886719 140.574219 188.121094 140.621094 188.363281 140.621094 C 189.757812 140.621094 190.890625 139.488281 190.890625 138.09375 C 190.890625 136.703125 189.753906 135.570312 188.363281 135.570312 Z M 175.941406 142.992188 C 176.617188 142.992188 177.167969 143.542969 177.167969 144.21875 C 177.167969 144.898438 176.617188 145.449219 175.941406 145.449219 C 175.261719 145.449219 174.714844 144.898438 174.714844 144.21875 C 174.714844 143.542969 175.261719 142.992188 175.941406 142.992188 Z M 168.238281 142.875 C 169.046875 143.359375 169.664062 144.074219 170.019531 144.925781 L 166.480469 145.820312 L 165.585938 142.28125 C 166.503906 142.1875 167.429688 142.394531 168.238281 142.875 Z M 161.792969 147.671875 C 161.261719 145.5625 162.382812 143.425781 164.332031 142.609375 L 165.378906 146.769531 C 165.421875 146.933594 165.53125 147.078125 165.675781 147.167969 C 165.777344 147.226562 165.894531 147.257812 166.011719 147.257812 C 166.0625 147.257812 166.117188 147.25 166.167969 147.238281 L 170.332031 146.1875 C 170.46875 147.554688 169.9375 148.921875 168.894531 149.851562 L 163.132812 149.851562 C 162.480469 149.273438 162.011719 148.527344 161.792969 147.671875 Z M 173.386719 149.851562 L 175.273438 146.644531 C 175.484375 146.703125 175.707031 146.746094 175.941406 146.746094 C 176.390625 146.746094 176.808594 146.617188 177.175781 146.410156 L 179.171875 148.445312 C 178.945312 148.824219 178.808594 149.257812 178.808594 149.730469 C 178.808594 149.769531 178.820312 149.808594 178.820312 149.851562 Z M 181.335938 150.957031 C 180.84375 150.957031 180.421875 150.664062 180.226562 150.25 C 180.226562 150.246094 180.226562 150.246094 180.226562 150.246094 C 180.152344 150.085938 180.109375 149.914062 180.109375 149.730469 C 180.109375 149.054688 180.65625 148.503906 181.335938 148.503906 C 182.011719 148.503906 182.5625 149.054688 182.5625 149.730469 C 182.5625 150.40625 182.011719 150.957031 181.335938 150.957031 Z M 179.519531 137.738281 C 180.308594 137.714844 181.8125 137.796875 182.691406 138.675781 C 182.988281 138.976562 183.152344 139.371094 183.152344 139.792969 C 183.152344 140.210938 182.988281 140.609375 182.691406 140.90625 C 182.074219 141.523438 181.074219 141.523438 180.460938 140.90625 C 179.582031 140.027344 179.496094 138.523438 179.519531 137.738281 Z M 187.867188 146.082031 C 187.613281 146.335938 187.1875 146.34375 186.925781 146.078125 L 183.078125 142.234375 C 183.265625 142.117188 183.445312 141.988281 183.609375 141.824219 C 183.773438 141.660156 183.90625 141.480469 184.023438 141.289062 L 187.867188 145.132812 C 188.125 145.394531 188.128906 145.820312 187.867188 146.082031 Z M 188.363281 139.324219 C 187.6875 139.324219 187.136719 138.773438 187.136719 138.09375 C 187.136719 137.417969 187.6875 136.867188 188.363281 136.867188 C 189.039062 136.867188 189.589844 137.417969 189.589844 138.09375 C 189.589844 138.773438 189.039062 139.324219 188.363281 139.324219 Z M 158.402344 138.917969 L 159.875 139.628906 L 160.953125 140.859375 C 161.074219 140.996094 161.246094 141.074219 161.425781 141.082031 C 161.429688 141.082031 161.4375 141.082031 161.441406 141.082031 C 161.617188 141.082031 161.785156 141.007812 161.910156 140.878906 L 163.039062 139.699219 L 164.542969 139.054688 C 164.710938 138.984375 164.839844 138.84375 164.902344 138.671875 C 164.960938 138.5 164.945312 138.3125 164.859375 138.148438 L 164.085938 136.707031 L 163.9375 135.078125 C 163.921875 134.898438 163.832031 134.730469 163.683594 134.621094 C 163.539062 134.511719 163.355469 134.464844 163.175781 134.5 L 161.566406 134.789062 L 159.972656 134.425781 C 159.796875 134.386719 159.605469 134.421875 159.457031 134.527344 C 159.308594 134.628906 159.210938 134.792969 159.183594 134.972656 L 158.964844 136.59375 L 158.125 138 C 158.03125 138.15625 158.007812 138.34375 158.0625 138.519531 C 158.113281 138.691406 158.238281 138.835938 158.402344 138.917969 Z M 160.148438 137.144531 C 160.191406 137.070312 160.21875 136.988281 160.230469 136.902344 L 160.375 135.851562 L 161.410156 136.085938 C 161.496094 136.105469 161.582031 136.105469 161.667969 136.089844 L 162.710938 135.902344 L 162.804688 136.957031 C 162.8125 137.046875 162.839844 137.128906 162.878906 137.207031 L 163.378906 138.140625 L 162.40625 138.558594 C 162.328125 138.59375 162.253906 138.640625 162.195312 138.707031 L 161.460938 139.46875 L 160.765625 138.671875 C 160.707031 138.605469 160.636719 138.554688 160.558594 138.515625 L 159.605469 138.054688 Z M 160.148438 137.144531 " fill-opacity="1" fill-rule="nonzero"/></g><g fill="#ffffff" fill-opacity="1"><g transform="translate(148.29837, 114.730518)"><g><path d="M 5.125 -7.9375 L 5.125 -6.359375 L 2.390625 -6.359375 L 2.390625 -4.78125 L 5 -4.78125 L 5 -3.1875 L 2.390625 -3.1875 L 2.390625 -1.59375 L 5.125 -1.59375 L 5.125 0 L 0.578125 0 L 0.578125 -7.9375 Z M 5.125 -7.9375 "/></g></g></g><g fill="#ffffff" fill-opacity="1"><g transform="translate(153.879917, 114.730518)"><g><path d="M 0.90625 -0.609375 C 0.445312 -1.109375 0.21875 -1.722656 0.21875 -2.453125 C 0.21875 -3.191406 0.445312 -3.8125 0.90625 -4.3125 C 1.375 -4.820312 1.960938 -5.078125 2.671875 -5.078125 C 3.328125 -5.078125 3.867188 -4.875 4.296875 -4.46875 L 4.296875 -8.28125 L 6 -8.28125 L 6 0 L 4.3125 0 L 4.3125 -0.5625 L 4.296875 -0.5625 C 3.867188 -0.09375 3.328125 0.140625 2.671875 0.140625 C 1.960938 0.140625 1.375 -0.109375 0.90625 -0.609375 Z M 2.359375 -3.296875 C 2.140625 -3.078125 2.03125 -2.796875 2.03125 -2.453125 C 2.03125 -2.117188 2.132812 -1.84375 2.34375 -1.625 C 2.5625 -1.414062 2.84375 -1.3125 3.1875 -1.3125 C 3.519531 -1.3125 3.789062 -1.421875 4 -1.640625 C 4.21875 -1.859375 4.328125 -2.132812 4.328125 -2.46875 C 4.328125 -2.800781 4.21875 -3.078125 4 -3.296875 C 3.78125 -3.515625 3.507812 -3.625 3.1875 -3.625 C 2.851562 -3.625 2.578125 -3.515625 2.359375 -3.296875 Z M 2.359375 -3.296875 "/></g></g></g><g fill="#ffffff" fill-opacity="1"><g transform="translate(160.452668, 114.730518)"><g><path d="M 2.1875 -4.9375 L 2.1875 -2.59375 C 2.1875 -2.101562 2.257812 -1.753906 2.40625 -1.546875 C 2.550781 -1.335938 2.800781 -1.234375 3.15625 -1.234375 C 3.507812 -1.234375 3.757812 -1.335938 3.90625 -1.546875 C 4.050781 -1.753906 4.125 -2.101562 4.125 -2.59375 L 4.125 -4.9375 L 5.828125 -4.9375 L 5.828125 -2.171875 C 5.828125 -1.347656 5.613281 -0.753906 5.1875 -0.390625 C 4.757812 -0.0351562 4.082031 0.140625 3.15625 0.140625 C 2.226562 0.140625 1.550781 -0.0351562 1.125 -0.390625 C 0.695312 -0.753906 0.484375 -1.347656 0.484375 -2.171875 L 0.484375 -4.9375 Z M 2.1875 -4.9375 "/></g></g></g><g fill="#ffffff" fill-opacity="1"><g transform="translate(166.717437, 114.730518)"><g><path d="M 1.828125 -4.9375 L 3.03125 -2.25 L 4.234375 -4.9375 L 6.25 -4.9375 L 3.609375 0 L 2.453125 0 L -0.1875 -4.9375 Z M 1.828125 -4.9375 "/></g></g></g><g fill="#ffffff" fill-opacity="1"><g transform="translate(172.780158, 114.730518)"><g><path d="M 0.734375 -7.6875 C 0.941406 -7.882812 1.179688 -7.984375 1.453125 -7.984375 C 1.734375 -7.984375 1.972656 -7.882812 2.171875 -7.6875 C 2.367188 -7.488281 2.46875 -7.25 2.46875 -6.96875 C 2.46875 -6.695312 2.367188 -6.460938 2.171875 -6.265625 C 1.972656 -6.066406 1.734375 -5.96875 1.453125 -5.96875 C 1.179688 -5.96875 0.941406 -6.066406 0.734375 -6.265625 C 0.535156 -6.460938 0.4375 -6.695312 0.4375 -6.96875 C 0.4375 -7.25 0.535156 -7.488281 0.734375 -7.6875 Z M 0.578125 -4.9375 L 0.578125 0 L 2.28125 0 L 2.28125 -4.9375 Z M 0.578125 -4.9375 "/></g></g></g><g fill="#ffffff" fill-opacity="1"><g transform="translate(175.686418, 114.730518)"><g><path d="M 2.71875 -5.078125 C 3 -5.078125 3.273438 -5.046875 3.546875 -4.984375 C 3.828125 -4.921875 4.035156 -4.859375 4.171875 -4.796875 L 4.375 -4.703125 L 3.828125 -3.578125 C 3.441406 -3.785156 3.070312 -3.890625 2.71875 -3.890625 C 2.53125 -3.890625 2.394531 -3.867188 2.3125 -3.828125 C 2.226562 -3.785156 2.1875 -3.707031 2.1875 -3.59375 C 2.1875 -3.5625 2.191406 -3.53125 2.203125 -3.5 C 2.210938 -3.476562 2.222656 -3.457031 2.234375 -3.4375 C 2.253906 -3.414062 2.269531 -3.394531 2.28125 -3.375 C 2.300781 -3.363281 2.332031 -3.347656 2.375 -3.328125 C 2.414062 -3.304688 2.445312 -3.289062 2.46875 -3.28125 C 2.488281 -3.269531 2.523438 -3.253906 2.578125 -3.234375 C 2.628906 -3.222656 2.664062 -3.210938 2.6875 -3.203125 C 2.71875 -3.191406 2.765625 -3.175781 2.828125 -3.15625 C 2.890625 -3.132812 2.9375 -3.125 2.96875 -3.125 C 3.164062 -3.0625 3.335938 -2.992188 3.484375 -2.921875 C 3.628906 -2.847656 3.785156 -2.75 3.953125 -2.625 C 4.117188 -2.507812 4.242188 -2.359375 4.328125 -2.171875 C 4.421875 -1.984375 4.46875 -1.773438 4.46875 -1.546875 C 4.46875 -0.421875 3.6875 0.140625 2.125 0.140625 C 1.769531 0.140625 1.429688 0.0859375 1.109375 -0.015625 C 0.796875 -0.128906 0.570312 -0.238281 0.4375 -0.34375 L 0.21875 -0.515625 L 0.921875 -1.6875 C 0.960938 -1.632812 1.023438 -1.578125 1.109375 -1.515625 C 1.191406 -1.460938 1.34375 -1.378906 1.5625 -1.265625 C 1.78125 -1.160156 1.972656 -1.109375 2.140625 -1.109375 C 2.492188 -1.109375 2.671875 -1.226562 2.671875 -1.46875 C 2.671875 -1.582031 2.625 -1.664062 2.53125 -1.71875 C 2.4375 -1.78125 2.28125 -1.847656 2.0625 -1.921875 C 1.851562 -2.003906 1.6875 -2.078125 1.5625 -2.140625 C 1.257812 -2.304688 1.015625 -2.488281 0.828125 -2.6875 C 0.648438 -2.894531 0.5625 -3.164062 0.5625 -3.5 C 0.5625 -4 0.753906 -4.382812 1.140625 -4.65625 C 1.535156 -4.9375 2.0625 -5.078125 2.71875 -5.078125 Z M 2.71875 -5.078125 "/></g></g></g><g fill="#ffffff" fill-opacity="1"><g transform="translate(180.42111, 114.730518)"><g><path d="M 0.734375 -7.6875 C 0.941406 -7.882812 1.179688 -7.984375 1.453125 -7.984375 C 1.734375 -7.984375 1.972656 -7.882812 2.171875 -7.6875 C 2.367188 -7.488281 2.46875 -7.25 2.46875 -6.96875 C 2.46875 -6.695312 2.367188 -6.460938 2.171875 -6.265625 C 1.972656 -6.066406 1.734375 -5.96875 1.453125 -5.96875 C 1.179688 -5.96875 0.941406 -6.066406 0.734375 -6.265625 C 0.535156 -6.460938 0.4375 -6.695312 0.4375 -6.96875 C 0.4375 -7.25 0.535156 -7.488281 0.734375 -7.6875 Z M 0.578125 -4.9375 L 0.578125 0 L 2.28125 0 L 2.28125 -4.9375 Z M 0.578125 -4.9375 "/></g></g></g><g fill="#ffffff" fill-opacity="1"><g transform="translate(183.327369, 114.730518)"><g><path d="M 1.046875 -0.578125 C 0.492188 -1.066406 0.21875 -1.691406 0.21875 -2.453125 C 0.21875 -3.222656 0.503906 -3.851562 1.078125 -4.34375 C 1.648438 -4.832031 2.359375 -5.078125 3.203125 -5.078125 C 4.023438 -5.078125 4.71875 -4.828125 5.28125 -4.328125 C 5.851562 -3.835938 6.140625 -3.210938 6.140625 -2.453125 C 6.140625 -1.703125 5.859375 -1.082031 5.296875 -0.59375 C 4.742188 -0.101562 4.046875 0.140625 3.203125 0.140625 C 2.316406 0.140625 1.597656 -0.0976562 1.046875 -0.578125 Z M 2.359375 -3.296875 C 2.140625 -3.078125 2.03125 -2.796875 2.03125 -2.453125 C 2.03125 -2.117188 2.132812 -1.84375 2.34375 -1.625 C 2.5625 -1.414062 2.84375 -1.3125 3.1875 -1.3125 C 3.519531 -1.3125 3.789062 -1.421875 4 -1.640625 C 4.21875 -1.859375 4.328125 -2.132812 4.328125 -2.46875 C 4.328125 -2.800781 4.21875 -3.078125 4 -3.296875 C 3.78125 -3.515625 3.507812 -3.625 3.1875 -3.625 C 2.851562 -3.625 2.578125 -3.515625 2.359375 -3.296875 Z M 2.359375 -3.296875 "/></g></g></g><g fill="#ffffff" fill-opacity="1"><g transform="translate(189.669148, 114.730518)"><g><path d="M 0.578125 0 L 0.578125 -4.9375 L 2.28125 -4.9375 L 2.28125 -4.421875 L 2.296875 -4.421875 C 2.742188 -4.859375 3.21875 -5.078125 3.71875 -5.078125 C 3.957031 -5.078125 4.195312 -5.046875 4.4375 -4.984375 C 4.675781 -4.921875 4.90625 -4.820312 5.125 -4.6875 C 5.351562 -4.550781 5.535156 -4.359375 5.671875 -4.109375 C 5.804688 -3.867188 5.875 -3.582031 5.875 -3.25 L 5.875 0 L 4.171875 0 L 4.171875 -2.796875 C 4.171875 -3.046875 4.085938 -3.265625 3.921875 -3.453125 C 3.765625 -3.648438 3.554688 -3.75 3.296875 -3.75 C 3.035156 -3.75 2.800781 -3.648438 2.59375 -3.453125 C 2.382812 -3.253906 2.28125 -3.035156 2.28125 -2.796875 L 2.28125 0 Z M 0.578125 0 "/></g></g></g><g fill="#ffffff" fill-opacity="1"><g transform="translate(196.041095, 114.730518)"><g/></g></g><g fill="#ffffff" fill-opacity="1"><g transform="translate(142.08936, 126.704202)"><g><path d="M 4.796875 -1.640625 C 5.078125 -1.640625 5.347656 -1.679688 5.609375 -1.765625 C 5.867188 -1.847656 6.054688 -1.925781 6.171875 -2 L 6.359375 -2.125 L 7.125 -0.59375 C 7.101562 -0.570312 7.066406 -0.546875 7.015625 -0.515625 C 6.972656 -0.484375 6.867188 -0.421875 6.703125 -0.328125 C 6.546875 -0.242188 6.375 -0.171875 6.1875 -0.109375 C 6 -0.046875 5.753906 0.0078125 5.453125 0.0625 C 5.148438 0.113281 4.84375 0.140625 4.53125 0.140625 C 3.789062 0.140625 3.085938 -0.0351562 2.421875 -0.390625 C 1.765625 -0.753906 1.234375 -1.253906 0.828125 -1.890625 C 0.421875 -2.523438 0.21875 -3.210938 0.21875 -3.953125 C 0.21875 -4.515625 0.335938 -5.050781 0.578125 -5.5625 C 0.816406 -6.070312 1.132812 -6.507812 1.53125 -6.875 C 1.925781 -7.25 2.382812 -7.539062 2.90625 -7.75 C 3.4375 -7.96875 3.976562 -8.078125 4.53125 -8.078125 C 5.039062 -8.078125 5.507812 -8.015625 5.9375 -7.890625 C 6.375 -7.773438 6.679688 -7.65625 6.859375 -7.53125 L 7.125 -7.359375 L 6.359375 -5.8125 C 6.316406 -5.851562 6.25 -5.898438 6.15625 -5.953125 C 6.070312 -6.003906 5.894531 -6.070312 5.625 -6.15625 C 5.351562 -6.25 5.078125 -6.296875 4.796875 -6.296875 C 4.359375 -6.296875 3.96875 -6.222656 3.625 -6.078125 C 3.28125 -5.941406 3.003906 -5.757812 2.796875 -5.53125 C 2.597656 -5.300781 2.445312 -5.050781 2.34375 -4.78125 C 2.238281 -4.519531 2.1875 -4.25 2.1875 -3.96875 C 2.1875 -3.375 2.410156 -2.835938 2.859375 -2.359375 C 3.316406 -1.878906 3.960938 -1.640625 4.796875 -1.640625 Z M 4.796875 -1.640625 "/></g></g></g><g fill="#ffffff" fill-opacity="1"><g transform="translate(149.335751, 126.704202)"><g><path d="M 1.046875 -0.578125 C 0.492188 -1.066406 0.21875 -1.691406 0.21875 -2.453125 C 0.21875 -3.222656 0.503906 -3.851562 1.078125 -4.34375 C 1.648438 -4.832031 2.359375 -5.078125 3.203125 -5.078125 C 4.023438 -5.078125 4.71875 -4.828125 5.28125 -4.328125 C 5.851562 -3.835938 6.140625 -3.210938 6.140625 -2.453125 C 6.140625 -1.703125 5.859375 -1.082031 5.296875 -0.59375 C 4.742188 -0.101562 4.046875 0.140625 3.203125 0.140625 C 2.316406 0.140625 1.597656 -0.0976562 1.046875 -0.578125 Z M 2.359375 -3.296875 C 2.140625 -3.078125 2.03125 -2.796875 2.03125 -2.453125 C 2.03125 -2.117188 2.132812 -1.84375 2.34375 -1.625 C 2.5625 -1.414062 2.84375 -1.3125 3.1875 -1.3125 C 3.519531 -1.3125 3.789062 -1.421875 4 -1.640625 C 4.21875 -1.859375 4.328125 -2.132812 4.328125 -2.46875 C 4.328125 -2.800781 4.21875 -3.078125 4 -3.296875 C 3.78125 -3.515625 3.507812 -3.625 3.1875 -3.625 C 2.851562 -3.625 2.578125 -3.515625 2.359375 -3.296875 Z M 2.359375 -3.296875 "/></g></g></g><g fill="#ffffff" fill-opacity="1"><g transform="translate(155.67753, 126.704202)"><g><path d="M 0.578125 0 L 0.578125 -4.9375 L 2.28125 -4.9375 L 2.28125 -4.421875 L 2.296875 -4.421875 C 2.742188 -4.859375 3.21875 -5.078125 3.71875 -5.078125 C 4.070312 -5.078125 4.40625 -5.003906 4.71875 -4.859375 C 5.039062 -4.710938 5.28125 -4.484375 5.4375 -4.171875 C 5.9375 -4.773438 6.484375 -5.078125 7.078125 -5.078125 C 7.597656 -5.078125 8.046875 -4.929688 8.421875 -4.640625 C 8.804688 -4.347656 9 -3.882812 9 -3.25 L 9 0 L 7.296875 0 L 7.296875 -2.796875 C 7.296875 -3.054688 7.222656 -3.273438 7.078125 -3.453125 C 6.929688 -3.628906 6.710938 -3.71875 6.421875 -3.71875 C 6.171875 -3.71875 5.976562 -3.640625 5.84375 -3.484375 C 5.71875 -3.335938 5.648438 -3.15625 5.640625 -2.9375 L 5.640625 0 L 3.9375 0 L 3.9375 -2.796875 C 3.9375 -3.054688 3.863281 -3.273438 3.71875 -3.453125 C 3.570312 -3.628906 3.359375 -3.71875 3.078125 -3.71875 C 2.804688 -3.71875 2.601562 -3.632812 2.46875 -3.46875 C 2.34375 -3.300781 2.28125 -3.109375 2.28125 -2.890625 L 2.28125 0 Z M 0.578125 0 "/></g></g></g><g fill="#ffffff" fill-opacity="1"><g transform="translate(165.15654, 126.704202)"><g><path d="M 5.65625 -4.328125 C 6.125 -3.828125 6.359375 -3.207031 6.359375 -2.46875 C 6.359375 -1.738281 6.125 -1.117188 5.65625 -0.609375 C 5.195312 -0.109375 4.609375 0.140625 3.890625 0.140625 C 3.242188 0.140625 2.707031 -0.0625 2.28125 -0.46875 L 2.28125 2.5 L 0.578125 2.5 L 0.578125 -4.9375 L 2.265625 -4.9375 L 2.265625 -4.375 L 2.28125 -4.375 C 2.707031 -4.84375 3.242188 -5.078125 3.890625 -5.078125 C 4.609375 -5.078125 5.195312 -4.828125 5.65625 -4.328125 Z M 4.203125 -1.640625 C 4.429688 -1.859375 4.546875 -2.132812 4.546875 -2.46875 C 4.546875 -2.8125 4.4375 -3.085938 4.21875 -3.296875 C 4.007812 -3.515625 3.734375 -3.625 3.390625 -3.625 C 3.054688 -3.625 2.78125 -3.515625 2.5625 -3.296875 C 2.351562 -3.078125 2.25 -2.800781 2.25 -2.46875 C 2.25 -2.132812 2.359375 -1.859375 2.578125 -1.640625 C 2.796875 -1.421875 3.066406 -1.3125 3.390625 -1.3125 C 3.710938 -1.3125 3.984375 -1.421875 4.203125 -1.640625 Z M 4.203125 -1.640625 "/></g></g></g><g fill="#ffffff" fill-opacity="1"><g transform="translate(171.72929, 126.704202)"><g><path d="M 5.578125 -2.234375 L 2 -2.234375 C 2 -1.890625 2.109375 -1.632812 2.328125 -1.46875 C 2.554688 -1.300781 2.800781 -1.21875 3.0625 -1.21875 C 3.332031 -1.21875 3.546875 -1.253906 3.703125 -1.328125 C 3.867188 -1.398438 4.054688 -1.546875 4.265625 -1.765625 L 5.5 -1.140625 C 4.976562 -0.285156 4.125 0.140625 2.9375 0.140625 C 2.1875 0.140625 1.546875 -0.113281 1.015625 -0.625 C 0.484375 -1.132812 0.21875 -1.75 0.21875 -2.46875 C 0.21875 -3.1875 0.484375 -3.800781 1.015625 -4.3125 C 1.546875 -4.820312 2.1875 -5.078125 2.9375 -5.078125 C 3.71875 -5.078125 4.351562 -4.847656 4.84375 -4.390625 C 5.332031 -3.941406 5.578125 -3.300781 5.578125 -2.46875 C 5.578125 -2.351562 5.578125 -2.273438 5.578125 -2.234375 Z M 2.046875 -3.171875 L 3.921875 -3.171875 C 3.878906 -3.429688 3.773438 -3.628906 3.609375 -3.765625 C 3.453125 -3.898438 3.242188 -3.96875 2.984375 -3.96875 C 2.703125 -3.96875 2.476562 -3.894531 2.3125 -3.75 C 2.144531 -3.601562 2.054688 -3.410156 2.046875 -3.171875 Z M 2.046875 -3.171875 "/></g></g></g><g fill="#ffffff" fill-opacity="1"><g transform="translate(177.484018, 126.704202)"><g><path d="M 0.859375 -4.9375 L 0.859375 -6.78125 L 2.5625 -6.78125 L 2.5625 -4.9375 L 3.609375 -4.9375 L 3.609375 -3.640625 L 2.5625 -3.640625 L 2.5625 -2.0625 C 2.5625 -1.613281 2.691406 -1.390625 2.953125 -1.390625 C 3.015625 -1.390625 3.082031 -1.398438 3.15625 -1.421875 C 3.226562 -1.453125 3.285156 -1.476562 3.328125 -1.5 L 3.375 -1.546875 L 3.796875 -0.15625 C 3.429688 0.0390625 3.015625 0.140625 2.546875 0.140625 C 2.222656 0.140625 1.945312 0.0859375 1.71875 -0.015625 C 1.488281 -0.128906 1.3125 -0.28125 1.1875 -0.46875 C 1.070312 -0.664062 0.988281 -0.867188 0.9375 -1.078125 C 0.882812 -1.285156 0.859375 -1.503906 0.859375 -1.734375 L 0.859375 -3.640625 L 0.15625 -3.640625 L 0.15625 -4.9375 Z M 0.859375 -4.9375 "/></g></g></g><g fill="#ffffff" fill-opacity="1"><g transform="translate(181.285242, 126.704202)"><g><path d="M 0.734375 -7.6875 C 0.941406 -7.882812 1.179688 -7.984375 1.453125 -7.984375 C 1.734375 -7.984375 1.972656 -7.882812 2.171875 -7.6875 C 2.367188 -7.488281 2.46875 -7.25 2.46875 -6.96875 C 2.46875 -6.695312 2.367188 -6.460938 2.171875 -6.265625 C 1.972656 -6.066406 1.734375 -5.96875 1.453125 -5.96875 C 1.179688 -5.96875 0.941406 -6.066406 0.734375 -6.265625 C 0.535156 -6.460938 0.4375 -6.695312 0.4375 -6.96875 C 0.4375 -7.25 0.535156 -7.488281 0.734375 -7.6875 Z M 0.578125 -4.9375 L 0.578125 0 L 2.28125 0 L 2.28125 -4.9375 Z M 0.578125 -4.9375 "/></g></g></g><g fill="#ffffff" fill-opacity="1"><g transform="translate(184.191502, 126.704202)"><g><path d="M 0.859375 -4.9375 L 0.859375 -6.78125 L 2.5625 -6.78125 L 2.5625 -4.9375 L 3.609375 -4.9375 L 3.609375 -3.640625 L 2.5625 -3.640625 L 2.5625 -2.0625 C 2.5625 -1.613281 2.691406 -1.390625 2.953125 -1.390625 C 3.015625 -1.390625 3.082031 -1.398438 3.15625 -1.421875 C 3.226562 -1.453125 3.285156 -1.476562 3.328125 -1.5 L 3.375 -1.546875 L 3.796875 -0.15625 C 3.429688 0.0390625 3.015625 0.140625 2.546875 0.140625 C 2.222656 0.140625 1.945312 0.0859375 1.71875 -0.015625 C 1.488281 -0.128906 1.3125 -0.28125 1.1875 -0.46875 C 1.070312 -0.664062 0.988281 -0.867188 0.9375 -1.078125 C 0.882812 -1.285156 0.859375 -1.503906 0.859375 -1.734375 L 0.859375 -3.640625 L 0.15625 -3.640625 L 0.15625 -4.9375 Z M 0.859375 -4.9375 "/></g></g></g><g fill="#ffffff" fill-opacity="1"><g transform="translate(187.992725, 126.704202)"><g><path d="M 0.734375 -7.6875 C 0.941406 -7.882812 1.179688 -7.984375 1.453125 -7.984375 C 1.734375 -7.984375 1.972656 -7.882812 2.171875 -7.6875 C 2.367188 -7.488281 2.46875 -7.25 2.46875 -6.96875 C 2.46875 -6.695312 2.367188 -6.460938 2.171875 -6.265625 C 1.972656 -6.066406 1.734375 -5.96875 1.453125 -5.96875 C 1.179688 -5.96875 0.941406 -6.066406 0.734375 -6.265625 C 0.535156 -6.460938 0.4375 -6.695312 0.4375 -6.96875 C 0.4375 -7.25 0.535156 -7.488281 0.734375 -7.6875 Z M 0.578125 -4.9375 L 0.578125 0 L 2.28125 0 L 2.28125 -4.9375 Z M 0.578125 -4.9375 "/></g></g></g><g fill="#ffffff" fill-opacity="1"><g transform="translate(190.898985, 126.704202)"><g><path d="M 1.046875 -0.578125 C 0.492188 -1.066406 0.21875 -1.691406 0.21875 -2.453125 C 0.21875 -3.222656 0.503906 -3.851562 1.078125 -4.34375 C 1.648438 -4.832031 2.359375 -5.078125 3.203125 -5.078125 C 4.023438 -5.078125 4.71875 -4.828125 5.28125 -4.328125 C 5.851562 -3.835938 6.140625 -3.210938 6.140625 -2.453125 C 6.140625 -1.703125 5.859375 -1.082031 5.296875 -0.59375 C 4.742188 -0.101562 4.046875 0.140625 3.203125 0.140625 C 2.316406 0.140625 1.597656 -0.0976562 1.046875 -0.578125 Z M 2.359375 -3.296875 C 2.140625 -3.078125 2.03125 -2.796875 2.03125 -2.453125 C 2.03125 -2.117188 2.132812 -1.84375 2.34375 -1.625 C 2.5625 -1.414062 2.84375 -1.3125 3.1875 -1.3125 C 3.519531 -1.3125 3.789062 -1.421875 4 -1.640625 C 4.21875 -1.859375 4.328125 -2.132812 4.328125 -2.46875 C 4.328125 -2.800781 4.21875 -3.078125 4 -3.296875 C 3.78125 -3.515625 3.507812 -3.625 3.1875 -3.625 C 2.851562 -3.625 2.578125 -3.515625 2.359375 -3.296875 Z M 2.359375 -3.296875 "/></g></g></g><g fill="#ffffff" fill-opacity="1"><g transform="translate(197.240763, 126.704202)"><g><path d="M 0.578125 0 L 0.578125 -4.9375 L 2.28125 -4.9375 L 2.28125 -4.421875 L 2.296875 -4.421875 C 2.742188 -4.859375 3.21875 -5.078125 3.71875 -5.078125 C 3.957031 -5.078125 4.195312 -5.046875 4.4375 -4.984375 C 4.675781 -4.921875 4.90625 -4.820312 5.125 -4.6875 C 5.351562 -4.550781 5.535156 -4.359375 5.671875 -4.109375 C 5.804688 -3.867188 5.875 -3.582031 5.875 -3.25 L 5.875 0 L 4.171875 0 L 4.171875 -2.796875 C 4.171875 -3.046875 4.085938 -3.265625 3.921875 -3.453125 C 3.765625 -3.648438 3.554688 -3.75 3.296875 -3.75 C 3.035156 -3.75 2.800781 -3.648438 2.59375 -3.453125 C 2.382812 -3.253906 2.28125 -3.035156 2.28125 -2.796875 L 2.28125 0 Z M 0.578125 0 "/></g></g></g><g fill="#ffffff" fill-opacity="1"><g transform="translate(203.606499, 126.704202)"><g/></g></g></svg>