<svg xmlns="http://www.w3.org/2000/svg" xmlns:xlink="http://www.w3.org/1999/xlink" width="455" zoomAndPan="magnify" viewBox="0 0 341.25 1535.999937" height="2048" preserveAspectRatio="xMidYMid meet" version="1.0"><defs><clipPath id="b278acb917"><path d="M 316.84375 1294.335938 L 325.824219 1294.335938 L 325.824219 1303.316406 L 316.84375 1303.316406 Z M 316.84375 1294.335938 " clip-rule="nonzero"/></clipPath><clipPath id="17fca115fb"><path d="M 329 220 L 336 220 L 336 226.136719 L 329 226.136719 Z M 329 220 " clip-rule="nonzero"/></clipPath><clipPath id="1af44ee054"><path d="M 323 194 L 340.5 194 L 340.5 217 L 323 217 Z M 323 194 " clip-rule="nonzero"/></clipPath><clipPath id="7e368d899e"><path d="M 338 132 L 340.5 132 L 340.5 152 L 338 152 Z M 338 132 " clip-rule="nonzero"/></clipPath><clipPath id="8cc97b4cad"><path d="M 311 143 L 340.5 143 L 340.5 201 L 311 201 Z M 311 143 " clip-rule="nonzero"/></clipPath><clipPath id="88e88d6dc7"><path d="M 269.152344 177 L 280 177 L 280 179 L 269.152344 179 Z M 269.152344 177 " clip-rule="nonzero"/></clipPath><clipPath id="55977cc23f"><path d="M 259 46 L 266 46 L 266 53 L 259 53 Z M 259 46 " clip-rule="nonzero"/></clipPath><clipPath id="d7ad917554"><path d="M 258.535156 46.234375 L 401.699219 22.121094 L 428.296875 180.046875 L 285.132812 204.160156 Z M 258.535156 46.234375 " clip-rule="nonzero"/></clipPath><clipPath id="fd6c38659a"><path d="M 258.535156 46.234375 L 346.351562 31.445312 L 372.949219 189.367188 L 285.132812 204.160156 Z M 258.535156 46.234375 " clip-rule="nonzero"/></clipPath><clipPath id="c3e19760a1"><path d="M 258.535156 46.234375 L 401.699219 22.121094 L 428.296875 180.046875 L 285.132812 204.160156 Z M 258.535156 46.234375 " clip-rule="nonzero"/></clipPath><clipPath id="5c87596235"><path d="M 304 61 L 312 61 L 312 68 L 304 68 Z M 304 61 " clip-rule="nonzero"/></clipPath><clipPath id="ef8bc962b3"><path d="M 258.535156 46.234375 L 401.699219 22.121094 L 428.296875 180.046875 L 285.132812 204.160156 Z M 258.535156 46.234375 " clip-rule="nonzero"/></clipPath><clipPath id="01c93a7e02"><path d="M 258.535156 46.234375 L 346.351562 31.445312 L 372.949219 189.367188 L 285.132812 204.160156 Z M 258.535156 46.234375 " clip-rule="nonzero"/></clipPath><clipPath id="99180cede8"><path d="M 258.535156 46.234375 L 401.699219 22.121094 L 428.296875 180.046875 L 285.132812 204.160156 Z M 258.535156 46.234375 " clip-rule="nonzero"/></clipPath><clipPath id="b0ad37344b"><path d="M 302 38 L 310 38 L 310 46 L 302 46 Z M 302 38 " clip-rule="nonzero"/></clipPath><clipPath id="3537219e93"><path d="M 258.535156 46.234375 L 401.699219 22.121094 L 428.296875 180.046875 L 285.132812 204.160156 Z M 258.535156 46.234375 " clip-rule="nonzero"/></clipPath><clipPath id="a1bc2147ce"><path d="M 258.535156 46.234375 L 346.351562 31.445312 L 372.949219 189.367188 L 285.132812 204.160156 Z M 258.535156 46.234375 " clip-rule="nonzero"/></clipPath><clipPath id="3a69094e58"><path d="M 258.535156 46.234375 L 401.699219 22.121094 L 428.296875 180.046875 L 285.132812 204.160156 Z M 258.535156 46.234375 " clip-rule="nonzero"/></clipPath><clipPath id="dbeb1bc465"><path d="M 265 54 L 295 54 L 295 83 L 265 83 Z M 265 54 " clip-rule="nonzero"/></clipPath><clipPath id="359df625da"><path d="M 258.535156 46.234375 L 401.699219 22.121094 L 428.296875 180.046875 L 285.132812 204.160156 Z M 258.535156 46.234375 " clip-rule="nonzero"/></clipPath><clipPath id="23a5396f9e"><path d="M 258.535156 46.234375 L 346.351562 31.445312 L 372.949219 189.367188 L 285.132812 204.160156 Z M 258.535156 46.234375 " clip-rule="nonzero"/></clipPath><clipPath id="de6c29cc8e"><path d="M 258.535156 46.234375 L 401.699219 22.121094 L 428.296875 180.046875 L 285.132812 204.160156 Z M 258.535156 46.234375 " clip-rule="nonzero"/></clipPath><clipPath id="d6618a67ca"><path d="M 261 48 L 272 48 L 272 58 L 261 58 Z M 261 48 " clip-rule="nonzero"/></clipPath><clipPath id="6a194fc7a0"><path d="M 258.535156 46.234375 L 401.699219 22.121094 L 428.296875 180.046875 L 285.132812 204.160156 Z M 258.535156 46.234375 " clip-rule="nonzero"/></clipPath><clipPath id="b019ad63fc"><path d="M 258.535156 46.234375 L 346.351562 31.445312 L 372.949219 189.367188 L 285.132812 204.160156 Z M 258.535156 46.234375 " clip-rule="nonzero"/></clipPath><clipPath id="4eb795b4b6"><path d="M 258.535156 46.234375 L 401.699219 22.121094 L 428.296875 180.046875 L 285.132812 204.160156 Z M 258.535156 46.234375 " clip-rule="nonzero"/></clipPath><clipPath id="89114d65e6"><path d="M 289 63 L 319 63 L 319 94 L 289 94 Z M 289 63 " clip-rule="nonzero"/></clipPath><clipPath id="c06aa96358"><path d="M 258.535156 46.234375 L 401.699219 22.121094 L 428.296875 180.046875 L 285.132812 204.160156 Z M 258.535156 46.234375 " clip-rule="nonzero"/></clipPath><clipPath id="7f1622eef2"><path d="M 258.535156 46.234375 L 346.351562 31.445312 L 372.949219 189.367188 L 285.132812 204.160156 Z M 258.535156 46.234375 " clip-rule="nonzero"/></clipPath><clipPath id="c1e3840895"><path d="M 258.535156 46.234375 L 401.699219 22.121094 L 428.296875 180.046875 L 285.132812 204.160156 Z M 258.535156 46.234375 " clip-rule="nonzero"/></clipPath><clipPath id="ce67859033"><path d="M 307 43 L 337 43 L 337 76 L 307 76 Z M 307 43 " clip-rule="nonzero"/></clipPath><clipPath id="1b63c83a05"><path d="M 258.535156 46.234375 L 401.699219 22.121094 L 428.296875 180.046875 L 285.132812 204.160156 Z M 258.535156 46.234375 " clip-rule="nonzero"/></clipPath><clipPath id="85fffad684"><path d="M 258.535156 46.234375 L 346.351562 31.445312 L 372.949219 189.367188 L 285.132812 204.160156 Z M 258.535156 46.234375 " clip-rule="nonzero"/></clipPath><clipPath id="779f0e869b"><path d="M 258.535156 46.234375 L 401.699219 22.121094 L 428.296875 180.046875 L 285.132812 204.160156 Z M 258.535156 46.234375 " clip-rule="nonzero"/></clipPath><clipPath id="04899b583d"><path d="M 335 43 L 340.5 43 L 340.5 60 L 335 60 Z M 335 43 " clip-rule="nonzero"/></clipPath><clipPath id="2e06889489"><path d="M 258.535156 46.234375 L 401.699219 22.121094 L 428.296875 180.046875 L 285.132812 204.160156 Z M 258.535156 46.234375 " clip-rule="nonzero"/></clipPath><clipPath id="55077f4754"><path d="M 258.535156 46.234375 L 346.351562 31.445312 L 372.949219 189.367188 L 285.132812 204.160156 Z M 258.535156 46.234375 " clip-rule="nonzero"/></clipPath><clipPath id="171653c45f"><path d="M 258.535156 46.234375 L 401.699219 22.121094 L 428.296875 180.046875 L 285.132812 204.160156 Z M 258.535156 46.234375 " clip-rule="nonzero"/></clipPath><clipPath id="48188f19c1"><path d="M 302 90 L 323 90 L 323 117 L 302 117 Z M 302 90 " clip-rule="nonzero"/></clipPath><clipPath id="4727f148f0"><path d="M 258.535156 46.234375 L 401.699219 22.121094 L 428.296875 180.046875 L 285.132812 204.160156 Z M 258.535156 46.234375 " clip-rule="nonzero"/></clipPath><clipPath id="90a6ca5490"><path d="M 258.535156 46.234375 L 346.351562 31.445312 L 372.949219 189.367188 L 285.132812 204.160156 Z M 258.535156 46.234375 " clip-rule="nonzero"/></clipPath><clipPath id="e92c76bade"><path d="M 258.535156 46.234375 L 401.699219 22.121094 L 428.296875 180.046875 L 285.132812 204.160156 Z M 258.535156 46.234375 " clip-rule="nonzero"/></clipPath><clipPath id="a8071dbbae"><path d="M 316 99 L 340.5 99 L 340.5 139 L 316 139 Z M 316 99 " clip-rule="nonzero"/></clipPath><clipPath id="542d71d805"><path d="M 258.535156 46.234375 L 401.699219 22.121094 L 428.296875 180.046875 L 285.132812 204.160156 Z M 258.535156 46.234375 " clip-rule="nonzero"/></clipPath><clipPath id="08aa013c8b"><path d="M 258.535156 46.234375 L 346.351562 31.445312 L 372.949219 189.367188 L 285.132812 204.160156 Z M 258.535156 46.234375 " clip-rule="nonzero"/></clipPath><clipPath id="fb252ad5e1"><path d="M 258.535156 46.234375 L 401.699219 22.121094 L 428.296875 180.046875 L 285.132812 204.160156 Z M 258.535156 46.234375 " clip-rule="nonzero"/></clipPath></defs><g clip-path="url(#b278acb917)"><path fill="#ffffff" d="M 321.199219 1303.445312 C 320.855469 1303.445312 320.59375 1303.34375 320.410156 1303.144531 C 320.226562 1302.949219 320.132812 1302.667969 320.132812 1302.308594 L 320.132812 1299.898438 L 317.878906 1299.898438 C 317.542969 1299.898438 317.289062 1299.808594 317.113281 1299.628906 C 316.933594 1299.445312 316.84375 1299.183594 316.84375 1298.835938 C 316.84375 1298.488281 316.933594 1298.222656 317.113281 1298.042969 C 317.289062 1297.863281 317.546875 1297.773438 317.878906 1297.773438 L 320.132812 1297.773438 L 320.132812 1295.449219 C 320.132812 1295.089844 320.226562 1294.816406 320.410156 1294.621094 C 320.59375 1294.429688 320.863281 1294.335938 321.21875 1294.335938 C 321.5625 1294.335938 321.824219 1294.429688 322 1294.621094 C 322.179688 1294.816406 322.269531 1295.089844 322.269531 1295.449219 L 322.269531 1297.773438 L 324.523438 1297.773438 C 324.855469 1297.773438 325.109375 1297.863281 325.289062 1298.042969 C 325.464844 1298.222656 325.554688 1298.488281 325.554688 1298.835938 C 325.554688 1299.183594 325.464844 1299.449219 325.289062 1299.628906 C 325.109375 1299.808594 324.855469 1299.898438 324.523438 1299.898438 L 322.269531 1299.898438 L 322.269531 1302.308594 C 322.269531 1302.667969 322.179688 1302.949219 322 1303.148438 C 321.824219 1303.34375 321.554688 1303.445312 321.199219 1303.445312 Z M 321.199219 1303.445312 " fill-opacity="1" fill-rule="nonzero"/></g><g clip-path="url(#17fca115fb)"><path fill="#488cca" d="M 329.234375 223.246094 C 329.234375 221.652344 330.535156 220.355469 332.132812 220.355469 C 333.730469 220.355469 335.027344 221.652344 335.027344 223.246094 C 335.027344 224.839844 333.730469 226.136719 332.132812 226.136719 C 330.535156 226.136719 329.234375 224.839844 329.234375 223.246094 Z M 334.394531 223.246094 C 334.394531 222 333.378906 220.988281 332.132812 220.988281 C 330.882812 220.988281 329.867188 222 329.867188 223.246094 C 329.867188 224.488281 330.882812 225.5 332.132812 225.5 C 333.378906 225.5 334.394531 224.488281 334.394531 223.246094 Z M 334.394531 223.246094 " fill-opacity="1" fill-rule="nonzero"/></g><path fill="#488cca" d="M 286.46875 215.789062 C 286.46875 214.195312 287.769531 212.898438 289.367188 212.898438 C 290.964844 212.898438 292.265625 214.195312 292.265625 215.789062 C 292.265625 217.382812 290.964844 218.679688 289.367188 218.679688 C 287.769531 218.679688 286.46875 217.382812 286.46875 215.789062 Z M 291.632812 215.789062 C 291.632812 214.542969 290.617188 213.53125 289.367188 213.53125 C 288.121094 213.53125 287.105469 214.542969 287.105469 215.789062 C 287.105469 217.03125 288.121094 218.046875 289.367188 218.046875 C 290.617188 218.046875 291.632812 217.03125 291.632812 215.789062 Z M 291.632812 215.789062 " fill-opacity="1" fill-rule="nonzero"/><path fill="#488cca" d="M 279.328125 171.109375 C 278.988281 171.109375 278.65625 171.046875 278.339844 170.914062 C 278.023438 170.785156 277.746094 170.597656 277.503906 170.355469 C 277.261719 170.117188 277.074219 169.835938 276.945312 169.523438 C 276.8125 169.207031 276.75 168.878906 276.75 168.535156 C 276.75 168.195312 276.8125 167.867188 276.945312 167.550781 C 277.074219 167.238281 277.261719 166.957031 277.503906 166.71875 C 277.746094 166.476562 278.023438 166.289062 278.339844 166.160156 C 278.65625 166.027344 278.988281 165.964844 279.328125 165.964844 C 279.671875 165.964844 280 166.027344 280.316406 166.160156 C 280.632812 166.289062 280.910156 166.476562 281.152344 166.71875 C 281.394531 166.957031 281.582031 167.238281 281.710938 167.550781 C 281.84375 167.867188 281.910156 168.195312 281.910156 168.535156 C 281.910156 168.878906 281.84375 169.207031 281.710938 169.523438 C 281.582031 169.835938 281.394531 170.117188 281.152344 170.355469 C 280.910156 170.597656 280.632812 170.785156 280.316406 170.914062 C 280 171.046875 279.671875 171.109375 279.328125 171.109375 Z M 279.328125 171.109375 " fill-opacity="1" fill-rule="nonzero"/><path fill="#488cca" d="M 329.234375 184.273438 C 329.234375 182.679688 330.535156 181.382812 332.132812 181.382812 C 333.730469 181.382812 335.027344 182.679688 335.027344 184.273438 C 335.027344 185.867188 333.730469 187.164062 332.132812 187.164062 C 330.535156 187.164062 329.234375 185.867188 329.234375 184.273438 Z M 334.394531 184.273438 C 334.394531 183.027344 333.378906 182.015625 332.132812 182.015625 C 330.882812 182.015625 329.867188 183.027344 329.867188 184.273438 C 329.867188 185.515625 330.882812 186.53125 332.132812 186.53125 C 333.378906 186.53125 334.394531 185.519531 334.394531 184.273438 Z M 334.394531 184.273438 " fill-opacity="1" fill-rule="nonzero"/><g clip-path="url(#1af44ee054)"><path fill="#488cca" d="M 323.949219 211.378906 L 324.273438 210.835938 L 331.96875 215.425781 L 340.648438 210.914062 L 340.648438 199.828125 L 349.519531 194.609375 L 358.535156 200.179688 L 358.535156 211.105469 L 357.898438 211.105469 L 357.898438 200.53125 L 349.511719 195.351562 L 341.28125 200.191406 L 341.28125 211.300781 L 331.945312 216.152344 Z M 323.949219 211.378906 " fill-opacity="1" fill-rule="nonzero"/></g><path fill="#488cca" d="M 332.273438 215.785156 L 332.328125 220.667969 L 331.695312 220.675781 L 331.636719 215.789062 Z M 332.273438 215.785156 " fill-opacity="1" fill-rule="nonzero"/><path fill="#488cca" d="M 332.449219 186.847656 L 332.449219 195.125 L 331.816406 195.125 L 331.816406 186.847656 Z M 332.449219 186.847656 " fill-opacity="1" fill-rule="nonzero"/><g clip-path="url(#7e368d899e)"><path fill="#488cca" d="M 338.203125 144.339844 L 338.203125 132.867188 L 338.835938 132.867188 L 338.835938 144.007812 L 348.265625 150.550781 L 358.039062 143.914062 L 358.398438 144.4375 L 348.261719 151.320312 Z M 338.203125 144.339844 " fill-opacity="1" fill-rule="nonzero"/></g><g clip-path="url(#8cc97b4cad)"><path fill="#488cca" d="M 311.085938 195.34375 L 311.085938 183.699219 L 319.210938 177.355469 L 319.210938 166.636719 L 328.039062 160.566406 L 328.039062 150.765625 L 338.34375 143.910156 L 338.695312 144.4375 L 328.675781 151.105469 L 328.675781 160.898438 L 319.84375 166.96875 L 319.84375 177.664062 L 311.71875 184.007812 L 311.71875 194.90625 L 324.078125 199.65625 L 332.125 194.613281 L 341.121094 199.734375 L 340.808594 200.285156 L 332.140625 195.351562 L 324.144531 200.363281 Z M 311.085938 195.34375 " fill-opacity="1" fill-rule="nonzero"/></g><path fill="#488cca" d="M 300.132812 211.105469 L 300.132812 199.804688 L 311.273438 194.835938 L 311.53125 195.414062 L 300.765625 200.214844 L 300.765625 211.105469 Z M 300.132812 211.105469 " fill-opacity="1" fill-rule="nonzero"/><path fill="#488cca" d="M 279.011719 177.816406 L 279.011719 168.535156 L 279.644531 168.535156 L 279.644531 177.464844 L 289.683594 183.679688 L 289.683594 194.917969 L 300.578125 199.71875 L 300.320312 200.296875 L 289.050781 195.332031 L 289.050781 184.03125 Z M 279.011719 177.816406 " fill-opacity="1" fill-rule="nonzero"/><g clip-path="url(#88e88d6dc7)"><path fill="#488cca" d="M 279.324219 177.3125 L 279.332031 177.945312 L 269.164062 178.089844 L 269.15625 177.453125 Z M 279.324219 177.3125 " fill-opacity="1" fill-rule="nonzero"/></g><path fill="#488cca" d="M 278.273438 211.3125 L 278.273438 199.804688 L 289.238281 194.835938 L 289.5 195.414062 L 278.90625 200.214844 L 278.90625 210.898438 L 287.128906 214.472656 L 286.875 215.050781 Z M 278.273438 211.3125 " fill-opacity="1" fill-rule="nonzero"/><g clip-path="url(#55977cc23f)"><g clip-path="url(#d7ad917554)"><g clip-path="url(#fd6c38659a)"><g clip-path="url(#c3e19760a1)"><path fill="#488cca" d="M 265.292969 48.644531 C 265.363281 49.054688 265.351562 49.460938 265.257812 49.863281 C 265.164062 50.265625 265 50.636719 264.757812 50.972656 C 264.519531 51.308594 264.222656 51.589844 263.871094 51.808594 C 263.523438 52.027344 263.144531 52.171875 262.734375 52.242188 C 262.328125 52.308594 261.921875 52.296875 261.519531 52.203125 C 261.117188 52.113281 260.746094 51.945312 260.410156 51.707031 C 260.070312 51.464844 259.792969 51.171875 259.574219 50.820312 C 259.355469 50.46875 259.210938 50.089844 259.140625 49.683594 C 259.074219 49.273438 259.085938 48.867188 259.175781 48.464844 C 259.269531 48.0625 259.4375 47.691406 259.675781 47.355469 C 259.914062 47.019531 260.210938 46.738281 260.5625 46.519531 C 260.910156 46.300781 261.292969 46.15625 261.699219 46.089844 C 262.105469 46.019531 262.511719 46.03125 262.914062 46.125 C 263.320312 46.214844 263.6875 46.382812 264.027344 46.621094 C 264.363281 46.863281 264.640625 47.15625 264.859375 47.507812 C 265.082031 47.859375 265.222656 48.238281 265.292969 48.644531 Z M 265.292969 48.644531 " fill-opacity="1" fill-rule="nonzero"/></g></g></g></g><g clip-path="url(#5c87596235)"><g clip-path="url(#ef8bc962b3)"><g clip-path="url(#01c93a7e02)"><g clip-path="url(#99180cede8)"><path fill="#488cca" d="M 311.085938 63.65625 C 311.15625 64.066406 311.144531 64.46875 311.050781 64.875 C 310.957031 65.277344 310.792969 65.648438 310.550781 65.984375 C 310.3125 66.320312 310.019531 66.597656 309.667969 66.820312 C 309.316406 67.039062 308.9375 67.183594 308.53125 67.25 C 308.121094 67.320312 307.714844 67.308594 307.3125 67.214844 C 306.910156 67.121094 306.539062 66.957031 306.203125 66.714844 C 305.867188 66.476562 305.585938 66.179688 305.367188 65.832031 C 305.148438 65.480469 305.003906 65.101562 304.933594 64.691406 C 304.867188 64.285156 304.878906 63.878906 304.972656 63.476562 C 305.0625 63.074219 305.230469 62.703125 305.46875 62.367188 C 305.710938 62.027344 306.003906 61.75 306.355469 61.53125 C 306.707031 61.3125 307.085938 61.167969 307.492188 61.097656 C 307.902344 61.03125 308.304688 61.042969 308.710938 61.132812 C 309.113281 61.226562 309.484375 61.394531 309.820312 61.632812 C 310.15625 61.871094 310.433594 62.167969 310.65625 62.519531 C 310.875 62.871094 311.019531 63.25 311.085938 63.65625 Z M 311.085938 63.65625 " fill-opacity="1" fill-rule="nonzero"/></g></g></g></g><g clip-path="url(#b0ad37344b)"><g clip-path="url(#3537219e93)"><g clip-path="url(#a1bc2147ce)"><g clip-path="url(#3a69094e58)"><path fill="#488cca" d="M 306.113281 45.324219 C 304.210938 45.644531 302.398438 44.355469 302.078125 42.449219 C 301.757812 40.546875 303.046875 38.734375 304.949219 38.414062 C 306.855469 38.09375 308.667969 39.382812 308.988281 41.289062 C 309.308594 43.191406 308.019531 45.003906 306.113281 45.324219 Z M 305.078125 39.171875 C 303.589844 39.421875 302.585938 40.835938 302.835938 42.324219 C 303.085938 43.8125 304.5 44.816406 305.988281 44.566406 C 307.472656 44.316406 308.480469 42.902344 308.230469 41.414062 C 307.980469 39.925781 306.566406 38.921875 305.078125 39.171875 Z M 305.078125 39.171875 " fill-opacity="1" fill-rule="nonzero"/></g></g></g></g><g clip-path="url(#dbeb1bc465)"><g clip-path="url(#359df625da)"><g clip-path="url(#23a5396f9e)"><g clip-path="url(#de6c29cc8e)"><path fill="#488cca" d="M 289.722656 80.363281 L 275.007812 82.839844 L 265.503906 71.335938 L 270.714844 57.347656 L 285.429688 54.871094 L 294.933594 66.378906 Z M 275.316406 82.011719 L 289.160156 79.679688 L 294.058594 66.523438 L 285.121094 55.699219 L 271.277344 58.03125 L 266.375 71.1875 Z M 275.316406 82.011719 " fill-opacity="1" fill-rule="nonzero"/></g></g></g></g><g clip-path="url(#d6618a67ca)"><g clip-path="url(#6a194fc7a0)"><g clip-path="url(#b019ad63fc)"><g clip-path="url(#4eb795b4b6)"><path fill="#488cca" d="M 261.949219 49.4375 L 262.484375 48.886719 L 271.261719 57.414062 L 270.726562 57.964844 Z M 261.949219 49.4375 " fill-opacity="1" fill-rule="nonzero"/></g></g></g></g><g clip-path="url(#89114d65e6)"><g clip-path="url(#c06aa96358)"><g clip-path="url(#7f1622eef2)"><g clip-path="url(#c1e3840895)"><path fill="#488cca" d="M 312.703125 90.703125 L 298.742188 93.050781 L 298.601562 92.867188 L 289.132812 80.25 L 289.746094 79.789062 L 299.074219 92.21875 L 312.140625 90.019531 L 317.734375 75.265625 L 307.730469 64.433594 L 308.292969 63.914062 L 318.621094 75.09375 Z M 312.703125 90.703125 " fill-opacity="1" fill-rule="nonzero"/></g></g></g></g><g clip-path="url(#ce67859033)"><g clip-path="url(#1b63c83a05)"><g clip-path="url(#85fffad684)"><g clip-path="url(#779f0e869b)"><path fill="#488cca" d="M 331.523438 73.324219 L 318.242188 75.558594 L 318.113281 74.804688 L 330.945312 72.640625 L 335.355469 59.5625 L 327.515625 48.558594 L 313.878906 50.859375 L 307.453125 44.355469 L 308 43.816406 L 314.144531 50.035156 L 327.863281 47.722656 L 336.207031 59.433594 Z M 331.523438 73.324219 " fill-opacity="1" fill-rule="nonzero"/></g></g></g></g><g clip-path="url(#04899b583d)"><g clip-path="url(#2e06889489)"><g clip-path="url(#55077f4754)"><g clip-path="url(#171653c45f)"><path fill="#488cca" d="M 349.351562 57.601562 L 335.847656 59.875 L 335.71875 59.121094 L 348.742188 56.925781 L 352.398438 43.816406 L 353.136719 44.023438 Z M 349.351562 57.601562 " fill-opacity="1" fill-rule="nonzero"/></g></g></g></g><g clip-path="url(#48188f19c1)"><g clip-path="url(#4727f148f0)"><g clip-path="url(#90a6ca5490)"><g clip-path="url(#e92c76bade)"><path fill="#488cca" d="M 316.636719 114.191406 L 302.925781 116.5 L 302.800781 115.742188 L 316.117188 113.5 L 322.042969 100.941406 L 312.144531 90.625 L 312.699219 90.09375 L 322.960938 100.792969 Z M 316.636719 114.191406 " fill-opacity="1" fill-rule="nonzero"/></g></g></g></g><g clip-path="url(#a8071dbbae)"><g clip-path="url(#542d71d805)"><g clip-path="url(#08aa013c8b)"><g clip-path="url(#fb252ad5e1)"><path fill="#488cca" d="M 383.042969 136.257812 L 369.128906 138.601562 L 359.914062 130.191406 L 347.101562 132.347656 L 338.074219 123.039062 L 326.359375 125.011719 L 316.097656 114.109375 L 316.65625 113.582031 L 326.636719 124.1875 L 338.34375 122.214844 L 347.371094 131.523438 L 360.15625 129.371094 L 369.367188 137.78125 L 382.394531 135.589844 L 385.589844 119.898438 L 377.945312 111.320312 L 382.257812 99.558594 L 382.980469 99.820312 L 378.824219 111.152344 L 386.417969 119.675781 Z M 383.042969 136.257812 " fill-opacity="1" fill-rule="nonzero"/></g></g></g></g></svg>