<svg xmlns="http://www.w3.org/2000/svg" xmlns:xlink="http://www.w3.org/1999/xlink" width="455" zoomAndPan="magnify" viewBox="0 0 341.25 1535.999937" height="2048" preserveAspectRatio="xMidYMid meet" version="1.0"><defs><filter x="0%" y="0%" width="100%" height="100%" id="df296c0b6b"><feColorMatrix values="0 0 0 0 1 0 0 0 0 1 0 0 0 0 1 0 0 0 1 0" color-interpolation-filters="sRGB"/></filter><clipPath id="683ada45b9"><path d="M 316.84375 1294.335938 L 325.824219 1294.335938 L 325.824219 1303.316406 L 316.84375 1303.316406 Z M 316.84375 1294.335938 " clip-rule="nonzero"/></clipPath><clipPath id="c7ff6d266b"><path d="M 0 9 L 340.5 9 L 340.5 635 L 0 635 Z M 0 9 " clip-rule="nonzero"/></clipPath><mask id="bab9f41bcb"><g filter="url(#df296c0b6b)"><rect x="-34.125" width="409.5" fill="#000000" y="-153.599994" height="1843.199924" fill-opacity="0.96"/></g></mask><clipPath id="c7b1719090"><path d="M 0 109 L 340.5 109 L 340.5 488 L 0 488 Z M 0 109 " clip-rule="nonzero"/></clipPath><clipPath id="e31d11f7aa"><path d="M 347.816406 635.675781 L -234.253906 308.882812 L -56.570312 -7.601562 L 525.5 319.1875 Z M 347.816406 635.675781 " clip-rule="nonzero"/></clipPath><clipPath id="7debd49313"><path d="M -56.800781 -7.3125 L 525.273438 319.476562 L 347.589844 635.960938 L -234.484375 309.171875 Z M -56.800781 -7.3125 " clip-rule="nonzero"/></clipPath><clipPath id="eb8d1696a8"><rect x="0" width="341" y="0" height="626"/></clipPath></defs><g clip-path="url(#683ada45b9)"><path fill="#ffffff" d="M 321.199219 1303.445312 C 320.855469 1303.445312 320.59375 1303.34375 320.410156 1303.144531 C 320.226562 1302.949219 320.132812 1302.667969 320.132812 1302.308594 L 320.132812 1299.898438 L 317.878906 1299.898438 C 317.542969 1299.898438 317.289062 1299.808594 317.113281 1299.628906 C 316.933594 1299.445312 316.84375 1299.183594 316.84375 1298.835938 C 316.84375 1298.488281 316.933594 1298.222656 317.113281 1298.042969 C 317.289062 1297.863281 317.546875 1297.773438 317.878906 1297.773438 L 320.132812 1297.773438 L 320.132812 1295.449219 C 320.132812 1295.089844 320.226562 1294.816406 320.410156 1294.621094 C 320.59375 1294.429688 320.863281 1294.335938 321.21875 1294.335938 C 321.5625 1294.335938 321.824219 1294.429688 322 1294.621094 C 322.179688 1294.816406 322.269531 1295.089844 322.269531 1295.449219 L 322.269531 1297.773438 L 324.523438 1297.773438 C 324.855469 1297.773438 325.109375 1297.863281 325.289062 1298.042969 C 325.464844 1298.222656 325.554688 1298.488281 325.554688 1298.835938 C 325.554688 1299.183594 325.464844 1299.449219 325.289062 1299.628906 C 325.109375 1299.808594 324.855469 1299.898438 324.523438 1299.898438 L 322.269531 1299.898438 L 322.269531 1302.308594 C 322.269531 1302.667969 322.179688 1302.949219 322 1303.148438 C 321.824219 1303.34375 321.554688 1303.445312 321.199219 1303.445312 Z M 321.199219 1303.445312 " fill-opacity="1" fill-rule="nonzero"/></g><g clip-path="url(#c7ff6d266b)"><g mask="url(#bab9f41bcb)"><g transform="matrix(1, 0, 0, 1, 0, 9)"><g clip-path="url(#eb8d1696a8)"><g clip-path="url(#c7b1719090)"><g clip-path="url(#e31d11f7aa)"><g clip-path="url(#7debd49313)"><path fill="#ffffff" d="M -170.164062 196.007812 C -176.410156 205.75 -181.445312 216.078125 -185.269531 227 C -200.207031 270.363281 -183.476562 320.28125 -147.507812 348.054688 C -102.515625 382.792969 -47.714844 368.308594 -1.277344 344.636719 C 28.300781 329.570312 57.285156 311.894531 89.820312 305.3125 C 133.769531 296.421875 181.65625 309.953125 214.453125 340.527344 C 235.511719 360.160156 250.003906 385.59375 265.285156 409.96875 C 280.5625 434.34375 297.597656 458.707031 321.792969 474.296875 C 367.695312 503.871094 434.328125 481.605469 452.777344 429.152344 C 472.585938 372.808594 432.742188 299.863281 392.871094 262.886719 C 344.578125 218.109375 274.011719 191.964844 208.484375 189.632812 C 178.355469 188.574219 148.457031 191.128906 118.542969 194.371094 C 77.707031 198.796875 37.46875 199.378906 11.039062 162.878906 C -0.996094 146.28125 -9.421875 124.082031 -29.105469 114.871094 C -44.917969 107.472656 -63.78125 108.78125 -80.066406 115.074219 C -96.347656 121.367188 -110.457031 132.226562 -123.582031 143.71875 C -141.164062 159.105469 -157.707031 176.382812 -170.164062 196.007812 Z M -170.164062 196.007812 " fill-opacity="1" fill-rule="nonzero"/></g></g></g></g></g></g></g></svg>